<?xml version="1.0" encoding="UTF-8" standalone="no"?>
<!DOCTYPE svg PUBLIC "-//W3C//DTD SVG 1.1//EN"
 "http://www.w3.org/Graphics/SVG/1.1/DTD/svg11.dtd">
<!-- Generated by graphviz version 2.38.0 (20140413.2041)
 -->
<!-- Title: snakemake_dag Pages: 1 -->
<svg width="1215pt" height="1124pt"
 viewBox="0.00 0.00 1214.96 1124.00" xmlns="http://www.w3.org/2000/svg" xmlns:xlink="http://www.w3.org/1999/xlink">
<g id="graph0" class="graph" transform="scale(1 1) rotate(0) translate(4 1120)">
<title>snakemake_dag</title>
<polygon fill="white" stroke="none" points="-4,4 -4,-1120 1210.96,-1120 1210.96,4 -4,4"/>
<!-- 0 -->
<g id="node1" class="node"><title>0</title>
<path fill="none" stroke="#68d856" stroke-width="2" d="M484.359,-36C484.359,-36 454.359,-36 454.359,-36 448.359,-36 442.359,-30 442.359,-24 442.359,-24 442.359,-12 442.359,-12 442.359,-6 448.359,-0 454.359,-0 454.359,-0 484.359,-0 484.359,-0 490.359,-0 496.359,-6 496.359,-12 496.359,-12 496.359,-24 496.359,-24 496.359,-30 490.359,-36 484.359,-36"/>
<text text-anchor="middle" x="469.359" y="-15" font-family="sans" font-size="10.00">all</text>
</g>
<!-- 1 -->
<g id="node2" class="node"><title>1</title>
<path fill="none" stroke="#bed856" stroke-width="2" stroke-dasharray="5,2" d="M70.5786,-1116C70.5786,-1116 12.1401,-1116 12.1401,-1116 6.14015,-1116 0.140148,-1110 0.140148,-1104 0.140148,-1104 0.140148,-1092 0.140148,-1092 0.140148,-1086 6.14015,-1080 12.1401,-1080 12.1401,-1080 70.5786,-1080 70.5786,-1080 76.5786,-1080 82.5786,-1086 82.5786,-1092 82.5786,-1092 82.5786,-1104 82.5786,-1104 82.5786,-1110 76.5786,-1116 70.5786,-1116"/>
<text text-anchor="middle" x="41.3594" y="-1095" font-family="sans" font-size="10.00">download_ncbi</text>
</g>
<!-- 1&#45;&gt;0 -->
<g id="edge1" class="edge"><title>1&#45;&gt;0</title>
<path fill="none" stroke="grey" stroke-width="2" d="M35.2884,-1079.76C26.5223,-1053.28 11.3594,-1000.86 11.3594,-955 11.3594,-955 11.3594,-955 11.3594,-161 11.3594,-116.874 19.4335,-97.6202 55.3594,-72 115.443,-29.1521 342,-20.9359 432.086,-19.3673"/>
<polygon fill="grey" stroke="grey" stroke-width="2" points="432.182,-22.8663 442.126,-19.2105 432.073,-15.8672 432.182,-22.8663"/>
</g>
<!-- 2 -->
<g id="node3" class="node"><title>2</title>
<path fill="none" stroke="#56d863" stroke-width="2" stroke-dasharray="5,2" d="M93.7806,-1044C93.7806,-1044 50.9381,-1044 50.9381,-1044 44.9381,-1044 38.9381,-1038 38.9381,-1032 38.9381,-1032 38.9381,-1020 38.9381,-1020 38.9381,-1014 44.9381,-1008 50.9381,-1008 50.9381,-1008 93.7806,-1008 93.7806,-1008 99.7806,-1008 105.781,-1014 105.781,-1020 105.781,-1020 105.781,-1032 105.781,-1032 105.781,-1038 99.7806,-1044 93.7806,-1044"/>
<text text-anchor="middle" x="72.3594" y="-1023" font-family="sans" font-size="10.00">gather_gbff</text>
</g>
<!-- 1&#45;&gt;2 -->
<g id="edge26" class="edge"><title>1&#45;&gt;2</title>
<path fill="none" stroke="grey" stroke-width="2" d="M49.0223,-1079.7C52.5511,-1071.73 56.8153,-1062.1 60.7281,-1053.26"/>
<polygon fill="grey" stroke="grey" stroke-width="2" points="63.9355,-1054.67 64.7846,-1044.1 57.5351,-1051.83 63.9355,-1054.67"/>
</g>
<!-- 2&#45;&gt;0 -->
<g id="edge2" class="edge"><title>2&#45;&gt;0</title>
<path fill="none" stroke="grey" stroke-width="2" d="M67.705,-1007.66C60.9843,-981.049 49.3594,-928.453 49.3594,-883 49.3594,-883 49.3594,-883 49.3594,-161 49.3594,-116.676 58.3243,-97.8093 94.3594,-72 148.057,-33.5405 348.434,-22.8038 432.192,-19.9638"/>
<polygon fill="grey" stroke="grey" stroke-width="2" points="432.396,-23.4592 442.279,-19.6412 432.172,-16.4627 432.396,-23.4592"/>
</g>
<!-- 3 -->
<g id="node4" class="node"><title>3</title>
<path fill="none" stroke="#d8b456" stroke-width="2" stroke-dasharray="5,2" d="M146.956,-972C146.956,-972 89.7627,-972 89.7627,-972 83.7627,-972 77.7627,-966 77.7627,-960 77.7627,-960 77.7627,-948 77.7627,-948 77.7627,-942 83.7627,-936 89.7627,-936 89.7627,-936 146.956,-936 146.956,-936 152.956,-936 158.956,-942 158.956,-948 158.956,-948 158.956,-960 158.956,-960 158.956,-966 152.956,-972 146.956,-972"/>
<text text-anchor="middle" x="118.359" y="-951" font-family="sans" font-size="10.00">gunzip_zipfiles</text>
</g>
<!-- 2&#45;&gt;3 -->
<g id="edge27" class="edge"><title>2&#45;&gt;3</title>
<path fill="none" stroke="grey" stroke-width="2" d="M83.7302,-1007.7C89.0778,-999.559 95.5637,-989.689 101.47,-980.701"/>
<polygon fill="grey" stroke="grey" stroke-width="2" points="104.553,-982.384 107.119,-972.104 98.7026,-978.539 104.553,-982.384"/>
</g>
<!-- 3&#45;&gt;0 -->
<g id="edge3" class="edge"><title>3&#45;&gt;0</title>
<path fill="none" stroke="grey" stroke-width="2" d="M112.086,-935.776C103.028,-909.322 87.3594,-856.925 87.3594,-811 87.3594,-811 87.3594,-811 87.3594,-161 87.3594,-116.473 97.2526,-98.0561 133.359,-72 180.639,-37.8809 354.889,-24.8635 432.105,-20.6943"/>
<polygon fill="grey" stroke="grey" stroke-width="2" points="432.528,-24.1772 442.334,-20.1635 432.166,-17.1866 432.528,-24.1772"/>
</g>
<!-- 4 -->
<g id="node5" class="node"><title>4</title>
<path fill="none" stroke="#56d8a2" stroke-width="2" d="M211.696,-900C211.696,-900 127.022,-900 127.022,-900 121.022,-900 115.022,-894 115.022,-888 115.022,-888 115.022,-876 115.022,-876 115.022,-870 121.022,-864 127.022,-864 127.022,-864 211.696,-864 211.696,-864 217.696,-864 223.696,-870 223.696,-876 223.696,-876 223.696,-888 223.696,-888 223.696,-894 217.696,-900 211.696,-900"/>
<text text-anchor="middle" x="169.359" y="-879" font-family="sans" font-size="10.00">convert_nucl_protein</text>
</g>
<!-- 3&#45;&gt;4 -->
<g id="edge28" class="edge"><title>3&#45;&gt;4</title>
<path fill="none" stroke="grey" stroke-width="2" d="M130.966,-935.697C136.957,-927.474 144.236,-917.483 150.839,-908.421"/>
<polygon fill="grey" stroke="grey" stroke-width="2" points="153.838,-910.248 156.898,-900.104 148.18,-906.126 153.838,-910.248"/>
</g>
<!-- 4&#45;&gt;0 -->
<g id="edge4" class="edge"><title>4&#45;&gt;0</title>
<path fill="none" stroke="grey" stroke-width="2" d="M159.983,-863.754C154.774,-853.588 148.524,-840.338 144.359,-828 131.424,-789.677 125.359,-779.447 125.359,-739 125.359,-739 125.359,-739 125.359,-161 125.359,-116.473 135.509,-98.408 171.359,-72 212.306,-41.8376 361.699,-26.9872 432.135,-21.5376"/>
<polygon fill="grey" stroke="grey" stroke-width="2" points="432.623,-25.0109 442.332,-20.7718 432.098,-18.0305 432.623,-25.0109"/>
</g>
<!-- 5 -->
<g id="node6" class="node"><title>5</title>
<path fill="none" stroke="#5673d8" stroke-width="2" d="M229.621,-828C229.621,-828 165.098,-828 165.098,-828 159.098,-828 153.098,-822 153.098,-816 153.098,-816 153.098,-804 153.098,-804 153.098,-798 159.098,-792 165.098,-792 165.098,-792 229.621,-792 229.621,-792 235.621,-792 241.621,-798 241.621,-804 241.621,-804 241.621,-816 241.621,-816 241.621,-822 235.621,-828 229.621,-828"/>
<text text-anchor="middle" x="197.359" y="-807" font-family="sans" font-size="10.00">create_mapover</text>
</g>
<!-- 4&#45;&gt;5 -->
<g id="edge29" class="edge"><title>4&#45;&gt;5</title>
<path fill="none" stroke="grey" stroke-width="2" d="M176.281,-863.697C179.434,-855.813 183.238,-846.304 186.741,-837.546"/>
<polygon fill="grey" stroke="grey" stroke-width="2" points="190.053,-838.689 190.518,-828.104 183.554,-836.089 190.053,-838.689"/>
</g>
<!-- 5&#45;&gt;0 -->
<g id="edge5" class="edge"><title>5&#45;&gt;0</title>
<path fill="none" stroke="grey" stroke-width="2" d="M190.479,-791.829C180.544,-765.444 163.359,-713.136 163.359,-667 163.359,-667 163.359,-667 163.359,-161 163.359,-116.268 174.57,-98.8354 210.359,-72 244.898,-46.1018 368.531,-29.6464 431.669,-22.7405"/>
<polygon fill="grey" stroke="grey" stroke-width="2" points="432.419,-26.1804 441.991,-21.6379 431.676,-19.22 432.419,-26.1804"/>
</g>
<!-- 22 -->
<g id="node23" class="node"><title>22</title>
<path fill="none" stroke="#d8d356" stroke-width="2" d="M273.116,-756C273.116,-756 203.603,-756 203.603,-756 197.603,-756 191.603,-750 191.603,-744 191.603,-744 191.603,-732 191.603,-732 191.603,-726 197.603,-720 203.603,-720 203.603,-720 273.116,-720 273.116,-720 279.116,-720 285.116,-726 285.116,-732 285.116,-732 285.116,-744 285.116,-744 285.116,-750 279.116,-756 273.116,-756"/>
<text text-anchor="middle" x="238.359" y="-735" font-family="sans" font-size="10.00">extract_from_gbk</text>
</g>
<!-- 5&#45;&gt;22 -->
<g id="edge46" class="edge"><title>5&#45;&gt;22</title>
<path fill="none" stroke="grey" stroke-width="2" d="M207.494,-791.697C212.211,-783.644 217.921,-773.894 223.141,-764.982"/>
<polygon fill="grey" stroke="grey" stroke-width="2" points="226.307,-766.502 228.341,-756.104 220.267,-762.964 226.307,-766.502"/>
</g>
<!-- 6 -->
<g id="node7" class="node"><title>6</title>
<path fill="none" stroke="#56d882" stroke-width="2" d="M351.394,-540C351.394,-540 279.325,-540 279.325,-540 273.325,-540 267.325,-534 267.325,-528 267.325,-528 267.325,-516 267.325,-516 267.325,-510 273.325,-504 279.325,-504 279.325,-504 351.394,-504 351.394,-504 357.394,-504 363.394,-510 363.394,-516 363.394,-516 363.394,-528 363.394,-528 363.394,-534 357.394,-540 351.394,-540"/>
<text text-anchor="middle" x="315.359" y="-524" font-family="sans" font-size="10.00">diamond_db</text>
<text text-anchor="middle" x="315.359" y="-514" font-family="sans" font-size="10.00">sample: rplB.fasta</text>
</g>
<!-- 6&#45;&gt;0 -->
<g id="edge6" class="edge"><title>6&#45;&gt;0</title>
<path fill="none" stroke="grey" stroke-width="2" d="M307.67,-503.907C296.566,-477.623 277.359,-425.447 277.359,-379 277.359,-379 277.359,-379 277.359,-161 277.359,-115.41 293.638,-101.543 328.359,-72 358.243,-46.5731 401.531,-32.7455 432.247,-25.6549"/>
<polygon fill="grey" stroke="grey" stroke-width="2" points="433.116,-29.0477 442.144,-23.5016 431.628,-22.2077 433.116,-29.0477"/>
</g>
<!-- 7 -->
<g id="node8" class="node"><title>7</title>
<path fill="none" stroke="#56d882" stroke-width="2" d="M389.446,-468C389.446,-468 317.273,-468 317.273,-468 311.273,-468 305.273,-462 305.273,-456 305.273,-456 305.273,-444 305.273,-444 305.273,-438 311.273,-432 317.273,-432 317.273,-432 389.446,-432 389.446,-432 395.446,-432 401.446,-438 401.446,-444 401.446,-444 401.446,-456 401.446,-456 401.446,-462 395.446,-468 389.446,-468"/>
<text text-anchor="middle" x="353.359" y="-452" font-family="sans" font-size="10.00">diamond_db</text>
<text text-anchor="middle" x="353.359" y="-442" font-family="sans" font-size="10.00">sample: rplC.fasta</text>
</g>
<!-- 7&#45;&gt;0 -->
<g id="edge7" class="edge"><title>7&#45;&gt;0</title>
<path fill="none" stroke="grey" stroke-width="2" d="M345.67,-431.907C334.566,-405.623 315.359,-353.447 315.359,-307 315.359,-307 315.359,-307 315.359,-161 315.359,-115.41 333.404,-103.501 366.359,-72 385.269,-53.9246 411.555,-40.5344 432.839,-31.7348"/>
<polygon fill="grey" stroke="grey" stroke-width="2" points="434.216,-34.954 442.222,-28.0144 431.636,-28.4469 434.216,-34.954"/>
</g>
<!-- 8 -->
<g id="node9" class="node"><title>8</title>
<path fill="none" stroke="#56d882" stroke-width="2" d="M427.446,-396C427.446,-396 355.273,-396 355.273,-396 349.273,-396 343.273,-390 343.273,-384 343.273,-384 343.273,-372 343.273,-372 343.273,-366 349.273,-360 355.273,-360 355.273,-360 427.446,-360 427.446,-360 433.446,-360 439.446,-366 439.446,-372 439.446,-372 439.446,-384 439.446,-384 439.446,-390 433.446,-396 427.446,-396"/>
<text text-anchor="middle" x="391.359" y="-380" font-family="sans" font-size="10.00">diamond_db</text>
<text text-anchor="middle" x="391.359" y="-370" font-family="sans" font-size="10.00">sample: rplD.fasta</text>
</g>
<!-- 8&#45;&gt;0 -->
<g id="edge8" class="edge"><title>8&#45;&gt;0</title>
<path fill="none" stroke="grey" stroke-width="2" d="M383.67,-359.907C372.566,-333.623 353.359,-281.447 353.359,-235 353.359,-235 353.359,-235 353.359,-161 353.359,-109.498 399.691,-66.3771 433.792,-41.6143"/>
<polygon fill="grey" stroke="grey" stroke-width="2" points="436.001,-44.3393 442.163,-35.7202 431.971,-38.6158 436.001,-44.3393"/>
</g>
<!-- 9 -->
<g id="node10" class="node"><title>9</title>
<path fill="none" stroke="#56d882" stroke-width="2" d="M465.394,-324C465.394,-324 393.325,-324 393.325,-324 387.325,-324 381.325,-318 381.325,-312 381.325,-312 381.325,-300 381.325,-300 381.325,-294 387.325,-288 393.325,-288 393.325,-288 465.394,-288 465.394,-288 471.394,-288 477.394,-294 477.394,-300 477.394,-300 477.394,-312 477.394,-312 477.394,-318 471.394,-324 465.394,-324"/>
<text text-anchor="middle" x="429.359" y="-308" font-family="sans" font-size="10.00">diamond_db</text>
<text text-anchor="middle" x="429.359" y="-298" font-family="sans" font-size="10.00">sample: rplE.fasta</text>
</g>
<!-- 9&#45;&gt;0 -->
<g id="edge9" class="edge"><title>9&#45;&gt;0</title>
<path fill="none" stroke="grey" stroke-width="2" d="M421.88,-287.704C417.886,-277.522 413.386,-264.272 411.359,-252 408.752,-236.214 409.561,-231.899 411.359,-216 418.739,-150.757 422.896,-134.052 444.359,-72 447.419,-63.1544 451.508,-53.8217 455.492,-45.4942"/>
<polygon fill="grey" stroke="grey" stroke-width="2" points="458.758,-46.7854 460.052,-36.2698 452.483,-43.6833 458.758,-46.7854"/>
</g>
<!-- 10 -->
<g id="node11" class="node"><title>10</title>
<path fill="none" stroke="#56d882" stroke-width="2" d="M502.724,-252C502.724,-252 431.994,-252 431.994,-252 425.994,-252 419.994,-246 419.994,-240 419.994,-240 419.994,-228 419.994,-228 419.994,-222 425.994,-216 431.994,-216 431.994,-216 502.724,-216 502.724,-216 508.724,-216 514.724,-222 514.724,-228 514.724,-228 514.724,-240 514.724,-240 514.724,-246 508.724,-252 502.724,-252"/>
<text text-anchor="middle" x="467.359" y="-236" font-family="sans" font-size="10.00">diamond_db</text>
<text text-anchor="middle" x="467.359" y="-226" font-family="sans" font-size="10.00">sample: rplF.fasta</text>
</g>
<!-- 10&#45;&gt;0 -->
<g id="edge10" class="edge"><title>10&#45;&gt;0</title>
<path fill="none" stroke="grey" stroke-width="2" d="M459.466,-215.745C455.252,-205.577 450.502,-192.327 448.359,-180 440.249,-133.341 451.829,-78.5817 460.747,-46.4501"/>
<polygon fill="grey" stroke="grey" stroke-width="2" points="464.219,-47.0441 463.638,-36.4652 457.495,-45.0977 464.219,-47.0441"/>
</g>
<!-- 11 -->
<g id="node12" class="node"><title>11</title>
<path fill="none" stroke="#56d882" stroke-width="2" d="M541.446,-180C541.446,-180 469.273,-180 469.273,-180 463.273,-180 457.273,-174 457.273,-168 457.273,-168 457.273,-156 457.273,-156 457.273,-150 463.273,-144 469.273,-144 469.273,-144 541.446,-144 541.446,-144 547.446,-144 553.446,-150 553.446,-156 553.446,-156 553.446,-168 553.446,-168 553.446,-174 547.446,-180 541.446,-180"/>
<text text-anchor="middle" x="505.359" y="-164" font-family="sans" font-size="10.00">diamond_db</text>
<text text-anchor="middle" x="505.359" y="-154" font-family="sans" font-size="10.00">sample: rplN.fasta</text>
</g>
<!-- 11&#45;&gt;0 -->
<g id="edge11" class="edge"><title>11&#45;&gt;0</title>
<path fill="none" stroke="grey" stroke-width="2" d="M499.409,-143.943C495.926,-133.616 491.593,-120.139 488.359,-108 482.903,-87.5182 477.947,-64.0616 474.466,-46.3729"/>
<polygon fill="grey" stroke="grey" stroke-width="2" points="477.831,-45.3374 472.498,-36.1827 470.958,-46.665 477.831,-45.3374"/>
</g>
<!-- 12 -->
<g id="node13" class="node"><title>12</title>
<path fill="none" stroke="#56d882" stroke-width="2" d="M579.605,-108C579.605,-108 509.114,-108 509.114,-108 503.114,-108 497.114,-102 497.114,-96 497.114,-96 497.114,-84 497.114,-84 497.114,-78 503.114,-72 509.114,-72 509.114,-72 579.605,-72 579.605,-72 585.605,-72 591.605,-78 591.605,-84 591.605,-84 591.605,-96 591.605,-96 591.605,-102 585.605,-108 579.605,-108"/>
<text text-anchor="middle" x="544.359" y="-92" font-family="sans" font-size="10.00">diamond_db</text>
<text text-anchor="middle" x="544.359" y="-82" font-family="sans" font-size="10.00">sample: rplP.fasta</text>
</g>
<!-- 12&#45;&gt;0 -->
<g id="edge12" class="edge"><title>12&#45;&gt;0</title>
<path fill="none" stroke="grey" stroke-width="2" d="M525.82,-71.6966C516.556,-63.0503 505.197,-52.4486 495.103,-43.027"/>
<polygon fill="grey" stroke="grey" stroke-width="2" points="497.384,-40.3688 487.685,-36.1043 492.608,-45.4863 497.384,-40.3688"/>
</g>
<!-- 13 -->
<g id="node14" class="node"><title>13</title>
<path fill="none" stroke="#56d882" stroke-width="2" d="M693.446,-540C693.446,-540 621.273,-540 621.273,-540 615.273,-540 609.273,-534 609.273,-528 609.273,-528 609.273,-516 609.273,-516 609.273,-510 615.273,-504 621.273,-504 621.273,-504 693.446,-504 693.446,-504 699.446,-504 705.446,-510 705.446,-516 705.446,-516 705.446,-528 705.446,-528 705.446,-534 699.446,-540 693.446,-540"/>
<text text-anchor="middle" x="657.359" y="-524" font-family="sans" font-size="10.00">diamond_db</text>
<text text-anchor="middle" x="657.359" y="-514" font-family="sans" font-size="10.00">sample: rplR.fasta</text>
</g>
<!-- 13&#45;&gt;0 -->
<g id="edge13" class="edge"><title>13&#45;&gt;0</title>
<path fill="none" stroke="grey" stroke-width="2" d="M649.67,-503.907C638.566,-477.623 619.359,-425.447 619.359,-379 619.359,-379 619.359,-379 619.359,-161 619.359,-120.553 626.364,-102.979 600.359,-72 576.866,-44.0131 536.368,-30.6517 506.603,-24.3709"/>
<polygon fill="grey" stroke="grey" stroke-width="2" points="507.051,-20.8928 496.568,-22.4323 505.723,-27.7657 507.051,-20.8928"/>
</g>
<!-- 14 -->
<g id="node15" class="node"><title>14</title>
<path fill="none" stroke="#56d882" stroke-width="2" d="M730.976,-468C730.976,-468 659.743,-468 659.743,-468 653.743,-468 647.743,-462 647.743,-456 647.743,-456 647.743,-444 647.743,-444 647.743,-438 653.743,-432 659.743,-432 659.743,-432 730.976,-432 730.976,-432 736.976,-432 742.976,-438 742.976,-444 742.976,-444 742.976,-456 742.976,-456 742.976,-462 736.976,-468 730.976,-468"/>
<text text-anchor="middle" x="695.359" y="-452" font-family="sans" font-size="10.00">diamond_db</text>
<text text-anchor="middle" x="695.359" y="-442" font-family="sans" font-size="10.00">sample: rplV.fasta</text>
</g>
<!-- 14&#45;&gt;0 -->
<g id="edge14" class="edge"><title>14&#45;&gt;0</title>
<path fill="none" stroke="grey" stroke-width="2" d="M687.67,-431.907C676.566,-405.623 657.359,-353.447 657.359,-307 657.359,-307 657.359,-307 657.359,-161 657.359,-120.031 661.607,-101.673 633.359,-72 600.216,-37.1856 544.09,-25.1942 506.876,-21.0914"/>
<polygon fill="grey" stroke="grey" stroke-width="2" points="506.737,-17.5621 496.449,-20.0926 506.07,-24.5302 506.737,-17.5621"/>
</g>
<!-- 15 -->
<g id="node16" class="node"><title>15</title>
<path fill="none" stroke="#56d882" stroke-width="2" d="M769.394,-396C769.394,-396 697.325,-396 697.325,-396 691.325,-396 685.325,-390 685.325,-384 685.325,-384 685.325,-372 685.325,-372 685.325,-366 691.325,-360 697.325,-360 697.325,-360 769.394,-360 769.394,-360 775.394,-360 781.394,-366 781.394,-372 781.394,-372 781.394,-384 781.394,-384 781.394,-390 775.394,-396 769.394,-396"/>
<text text-anchor="middle" x="733.359" y="-380" font-family="sans" font-size="10.00">diamond_db</text>
<text text-anchor="middle" x="733.359" y="-370" font-family="sans" font-size="10.00">sample: rplX.fasta</text>
</g>
<!-- 15&#45;&gt;0 -->
<g id="edge15" class="edge"><title>15&#45;&gt;0</title>
<path fill="none" stroke="grey" stroke-width="2" d="M725.67,-359.907C714.566,-333.623 695.359,-281.447 695.359,-235 695.359,-235 695.359,-235 695.359,-161 695.359,-120.031 700.427,-100.87 671.359,-72 627.302,-28.241 551.782,-19.3111 506.617,-18.1936"/>
<polygon fill="grey" stroke="grey" stroke-width="2" points="506.417,-14.6909 496.372,-18.0616 506.326,-21.6903 506.417,-14.6909"/>
</g>
<!-- 16 -->
<g id="node17" class="node"><title>16</title>
<path fill="none" stroke="#56d882" stroke-width="2" d="M811.224,-324C811.224,-324 735.494,-324 735.494,-324 729.494,-324 723.494,-318 723.494,-312 723.494,-312 723.494,-300 723.494,-300 723.494,-294 729.494,-288 735.494,-288 735.494,-288 811.224,-288 811.224,-288 817.224,-288 823.224,-294 823.224,-300 823.224,-300 823.224,-312 823.224,-312 823.224,-318 817.224,-324 811.224,-324"/>
<text text-anchor="middle" x="773.359" y="-308" font-family="sans" font-size="10.00">diamond_db</text>
<text text-anchor="middle" x="773.359" y="-298" font-family="sans" font-size="10.00">sample: rpsC.fasta</text>
</g>
<!-- 16&#45;&gt;0 -->
<g id="edge16" class="edge"><title>16&#45;&gt;0</title>
<path fill="none" stroke="grey" stroke-width="2" d="M765.72,-287.56C761.424,-277.331 756.174,-264.081 752.359,-252 727.592,-173.567 768.016,-129.659 709.359,-72 681.012,-44.1342 566.804,-28.7564 506.728,-22.4492"/>
<polygon fill="grey" stroke="grey" stroke-width="2" points="506.825,-18.9411 496.522,-21.4105 506.116,-25.9051 506.825,-18.9411"/>
</g>
<!-- 17 -->
<g id="node18" class="node"><title>17</title>
<path fill="none" stroke="#56d882" stroke-width="2" d="M849.224,-252C849.224,-252 773.494,-252 773.494,-252 767.494,-252 761.494,-246 761.494,-240 761.494,-240 761.494,-228 761.494,-228 761.494,-222 767.494,-216 773.494,-216 773.494,-216 849.224,-216 849.224,-216 855.224,-216 861.224,-222 861.224,-228 861.224,-228 861.224,-240 861.224,-240 861.224,-246 855.224,-252 849.224,-252"/>
<text text-anchor="middle" x="811.359" y="-236" font-family="sans" font-size="10.00">diamond_db</text>
<text text-anchor="middle" x="811.359" y="-226" font-family="sans" font-size="10.00">sample: rpsH.fasta</text>
</g>
<!-- 17&#45;&gt;0 -->
<g id="edge17" class="edge"><title>17&#45;&gt;0</title>
<path fill="none" stroke="grey" stroke-width="2" d="M804.761,-215.771C789.011,-174.735 750.309,-74.4364 747.359,-72 711.132,-42.0756 573.854,-27.2811 506.746,-21.7125"/>
<polygon fill="grey" stroke="grey" stroke-width="2" points="506.853,-18.2099 496.604,-20.8971 506.292,-25.1874 506.853,-18.2099"/>
</g>
<!-- 18 -->
<g id="node19" class="node"><title>18</title>
<path fill="none" stroke="#56d882" stroke-width="2" d="M886.002,-180C886.002,-180 812.717,-180 812.717,-180 806.717,-180 800.717,-174 800.717,-168 800.717,-168 800.717,-156 800.717,-156 800.717,-150 806.717,-144 812.717,-144 812.717,-144 886.002,-144 886.002,-144 892.002,-144 898.002,-150 898.002,-156 898.002,-156 898.002,-168 898.002,-168 898.002,-174 892.002,-180 886.002,-180"/>
<text text-anchor="middle" x="849.359" y="-164" font-family="sans" font-size="10.00">diamond_db</text>
<text text-anchor="middle" x="849.359" y="-154" font-family="sans" font-size="10.00">sample: rpsJ.fasta</text>
</g>
<!-- 18&#45;&gt;0 -->
<g id="edge18" class="edge"><title>18&#45;&gt;0</title>
<path fill="none" stroke="grey" stroke-width="2" d="M842.016,-143.768C832.262,-123.131 812.988,-89.1978 785.359,-72 739.335,-43.3514 580.208,-27.6036 506.888,-21.7194"/>
<polygon fill="grey" stroke="grey" stroke-width="2" points="506.96,-18.2144 496.717,-20.9225 506.413,-25.193 506.96,-18.2144"/>
</g>
<!-- 19 -->
<g id="node20" class="node"><title>19</title>
<path fill="none" stroke="#56d882" stroke-width="2" d="M925.28,-108C925.28,-108 849.438,-108 849.438,-108 843.438,-108 837.438,-102 837.438,-96 837.438,-96 837.438,-84 837.438,-84 837.438,-78 843.438,-72 849.438,-72 849.438,-72 925.28,-72 925.28,-72 931.28,-72 937.28,-78 937.28,-84 937.28,-84 937.28,-96 937.28,-96 937.28,-102 931.28,-108 925.28,-108"/>
<text text-anchor="middle" x="887.359" y="-92" font-family="sans" font-size="10.00">diamond_db</text>
<text text-anchor="middle" x="887.359" y="-82" font-family="sans" font-size="10.00">sample: rpsQ.fasta</text>
</g>
<!-- 19&#45;&gt;0 -->
<g id="edge19" class="edge"><title>19&#45;&gt;0</title>
<path fill="none" stroke="grey" stroke-width="2" d="M837.176,-75.1063C832.521,-73.9881 827.862,-72.9322 823.359,-72 708.936,-48.3138 571.621,-30.8296 506.772,-23.2152"/>
<polygon fill="grey" stroke="grey" stroke-width="2" points="506.969,-19.7146 496.632,-22.0359 506.161,-26.6677 506.969,-19.7146"/>
</g>
<!-- 20 -->
<g id="node21" class="node"><title>20</title>
<path fill="none" stroke="#56d882" stroke-width="2" d="M1041.67,-612C1041.67,-612 967.047,-612 967.047,-612 961.047,-612 955.047,-606 955.047,-600 955.047,-600 955.047,-588 955.047,-588 955.047,-582 961.047,-576 967.047,-576 967.047,-576 1041.67,-576 1041.67,-576 1047.67,-576 1053.67,-582 1053.67,-588 1053.67,-588 1053.67,-600 1053.67,-600 1053.67,-606 1047.67,-612 1041.67,-612"/>
<text text-anchor="middle" x="1004.36" y="-596" font-family="sans" font-size="10.00">diamond_db</text>
<text text-anchor="middle" x="1004.36" y="-586" font-family="sans" font-size="10.00">sample: rpsS.fasta</text>
</g>
<!-- 20&#45;&gt;0 -->
<g id="edge20" class="edge"><title>20&#45;&gt;0</title>
<path fill="none" stroke="grey" stroke-width="2" d="M996.467,-575.928C985.071,-549.671 965.359,-497.53 965.359,-451 965.359,-451 965.359,-451 965.359,-161 965.359,-120.553 976.349,-99.1401 946.359,-72 913.92,-42.6423 613.619,-25.7812 506.831,-20.6729"/>
<polygon fill="grey" stroke="grey" stroke-width="2" points="506.685,-17.1623 496.532,-20.1882 506.356,-24.1545 506.685,-17.1623"/>
</g>
<!-- 21 -->
<g id="node22" class="node"><title>21</title>
<path fill="none" stroke="#d87556" stroke-width="2" d="M708.357,-684C708.357,-684 606.361,-684 606.361,-684 600.361,-684 594.361,-678 594.361,-672 594.361,-672 594.361,-660 594.361,-660 594.361,-654 600.361,-648 606.361,-648 606.361,-648 708.357,-648 708.357,-648 714.357,-648 720.357,-654 720.357,-660 720.357,-660 720.357,-672 720.357,-672 720.357,-678 714.357,-684 708.357,-684"/>
<text text-anchor="middle" x="657.359" y="-663" font-family="sans" font-size="10.00">check_for_missing_seqs</text>
</g>
<!-- 21&#45;&gt;0 -->
<g id="edge21" class="edge"><title>21&#45;&gt;0</title>
<path fill="none" stroke="grey" stroke-width="2" d="M594.537,-664.676C528.084,-662.073 421.67,-651.345 339.359,-612 285.679,-586.341 239.359,-582.497 239.359,-523 239.359,-523 239.359,-523 239.359,-161 239.359,-115.846 253.141,-100.259 288.359,-72 330.206,-38.4233 392.637,-26.1159 432.157,-21.6062"/>
<polygon fill="grey" stroke="grey" stroke-width="2" points="432.583,-25.0809 442.172,-20.5744 431.866,-18.1177 432.583,-25.0809"/>
</g>
<!-- 21&#45;&gt;6 -->
<g id="edge30" class="edge"><title>21&#45;&gt;6</title>
<path fill="none" stroke="grey" stroke-width="2" d="M594.482,-658.671C523.235,-650.544 412.449,-634.725 377.359,-612 354.027,-596.889 336.987,-569.611 326.741,-549.223"/>
<polygon fill="grey" stroke="grey" stroke-width="2" points="329.863,-547.638 322.387,-540.131 323.55,-550.661 329.863,-547.638"/>
</g>
<!-- 21&#45;&gt;7 -->
<g id="edge31" class="edge"><title>21&#45;&gt;7</title>
<path fill="none" stroke="grey" stroke-width="2" d="M594.417,-658.026C531.958,-649.936 441.833,-634.728 415.359,-612 410.009,-607.407 378.976,-522.438 362.944,-477.839"/>
<polygon fill="grey" stroke="grey" stroke-width="2" points="366.161,-476.439 359.49,-468.208 359.572,-478.803 366.161,-476.439"/>
</g>
<!-- 21&#45;&gt;8 -->
<g id="edge32" class="edge"><title>21&#45;&gt;8</title>
<path fill="none" stroke="grey" stroke-width="2" d="M594.38,-655.872C541.997,-647.015 472.958,-631.988 453.359,-612 395.775,-553.27 433.829,-510.832 410.359,-432 407.782,-423.342 404.589,-414.027 401.561,-405.659"/>
<polygon fill="grey" stroke="grey" stroke-width="2" points="404.751,-404.195 398.002,-396.028 398.185,-406.621 404.751,-404.195"/>
</g>
<!-- 21&#45;&gt;9 -->
<g id="edge33" class="edge"><title>21&#45;&gt;9</title>
<path fill="none" stroke="grey" stroke-width="2" d="M594.422,-659.5C559.609,-653.249 518.109,-639.999 491.359,-612 463.059,-582.377 467.359,-563.969 467.359,-523 467.359,-523 467.359,-523 467.359,-449 467.359,-407.633 452.125,-361.722 440.948,-333.605"/>
<polygon fill="grey" stroke="grey" stroke-width="2" points="444.08,-332.019 437.049,-324.093 437.603,-334.673 444.08,-332.019"/>
</g>
<!-- 21&#45;&gt;10 -->
<g id="edge34" class="edge"><title>21&#45;&gt;10</title>
<path fill="none" stroke="grey" stroke-width="2" d="M594.353,-651.463C571.023,-643.532 546.186,-631.154 529.359,-612 502.32,-581.222 505.359,-563.969 505.359,-523 505.359,-523 505.359,-523 505.359,-377 505.359,-335.633 490.125,-289.722 478.948,-261.605"/>
<polygon fill="grey" stroke="grey" stroke-width="2" points="482.08,-260.019 475.049,-252.093 475.603,-262.673 482.08,-260.019"/>
</g>
<!-- 21&#45;&gt;11 -->
<g id="edge35" class="edge"><title>21&#45;&gt;11</title>
<path fill="none" stroke="grey" stroke-width="2" d="M613.797,-647.96C597.099,-639.445 579.227,-627.578 567.359,-612 542.533,-579.41 543.359,-563.969 543.359,-523 543.359,-523 543.359,-523 543.359,-305 543.359,-263.633 528.125,-217.722 516.948,-189.605"/>
<polygon fill="grey" stroke="grey" stroke-width="2" points="520.08,-188.019 513.049,-180.093 513.603,-190.673 520.08,-188.019"/>
</g>
<!-- 21&#45;&gt;12 -->
<g id="edge36" class="edge"><title>21&#45;&gt;12</title>
<path fill="none" stroke="grey" stroke-width="2" d="M640.869,-647.772C618.516,-622.534 581.359,-573.051 581.359,-523 581.359,-523 581.359,-523 581.359,-233 581.359,-191.705 566.526,-145.774 555.643,-117.634"/>
<polygon fill="grey" stroke="grey" stroke-width="2" points="558.801,-116.106 551.847,-108.113 552.299,-118.698 558.801,-116.106"/>
</g>
<!-- 21&#45;&gt;13 -->
<g id="edge37" class="edge"><title>21&#45;&gt;13</title>
<path fill="none" stroke="grey" stroke-width="2" d="M657.359,-647.871C657.359,-623.67 657.359,-579.211 657.359,-550.393"/>
<polygon fill="grey" stroke="grey" stroke-width="2" points="660.859,-550.189 657.359,-540.189 653.859,-550.189 660.859,-550.189"/>
</g>
<!-- 21&#45;&gt;14 -->
<g id="edge38" class="edge"><title>21&#45;&gt;14</title>
<path fill="none" stroke="grey" stroke-width="2" d="M668.206,-647.627C682.116,-624.224 705.499,-580.788 714.359,-540 717.756,-524.365 717.1,-519.764 714.359,-504 712.836,-495.236 709.995,-486.006 706.965,-477.748"/>
<polygon fill="grey" stroke="grey" stroke-width="2" points="710.154,-476.293 703.252,-468.255 703.635,-478.843 710.154,-476.293"/>
</g>
<!-- 21&#45;&gt;15 -->
<g id="edge39" class="edge"><title>21&#45;&gt;15</title>
<path fill="none" stroke="grey" stroke-width="2" d="M679.073,-647.866C689.855,-638.338 702.271,-625.66 710.359,-612 744.326,-554.635 742.931,-533.997 752.359,-468 754.622,-452.161 755.1,-447.764 752.359,-432 750.836,-423.236 747.995,-414.006 744.965,-405.748"/>
<polygon fill="grey" stroke="grey" stroke-width="2" points="748.154,-404.293 741.252,-396.255 741.635,-406.843 748.154,-404.293"/>
</g>
<!-- 21&#45;&gt;16 -->
<g id="edge40" class="edge"><title>21&#45;&gt;16</title>
<path fill="none" stroke="grey" stroke-width="2" d="M698.493,-647.899C743.508,-626.116 809.359,-583.85 809.359,-523 809.359,-523 809.359,-523 809.359,-449 809.359,-407.775 794.926,-361.826 784.338,-333.662"/>
<polygon fill="grey" stroke="grey" stroke-width="2" points="787.522,-332.192 780.645,-324.133 780.995,-334.722 787.522,-332.192"/>
</g>
<!-- 21&#45;&gt;17 -->
<g id="edge41" class="edge"><title>21&#45;&gt;17</title>
<path fill="none" stroke="grey" stroke-width="2" d="M719.543,-647.966C776.287,-628.191 851.359,-589.469 851.359,-523 851.359,-523 851.359,-523 851.359,-377 851.359,-335.484 835.323,-289.612 823.558,-261.545"/>
<polygon fill="grey" stroke="grey" stroke-width="2" points="826.634,-259.842 819.454,-252.051 820.209,-262.619 826.634,-259.842"/>
</g>
<!-- 21&#45;&gt;18 -->
<g id="edge42" class="edge"><title>21&#45;&gt;18</title>
<path fill="none" stroke="grey" stroke-width="2" d="M720.142,-654.461C788.85,-638.913 889.359,-602.572 889.359,-523 889.359,-523 889.359,-523 889.359,-305 889.359,-263.484 873.323,-217.612 861.558,-189.545"/>
<polygon fill="grey" stroke="grey" stroke-width="2" points="864.634,-187.842 857.454,-180.051 858.209,-190.619 864.634,-187.842"/>
</g>
<!-- 21&#45;&gt;19 -->
<g id="edge43" class="edge"><title>21&#45;&gt;19</title>
<path fill="none" stroke="grey" stroke-width="2" d="M720.322,-659.327C800.104,-648.284 927.359,-616.082 927.359,-523 927.359,-523 927.359,-523 927.359,-233 927.359,-191.484 911.323,-145.612 899.558,-117.545"/>
<polygon fill="grey" stroke="grey" stroke-width="2" points="902.634,-115.842 895.454,-108.051 896.209,-118.619 902.634,-115.842"/>
</g>
<!-- 21&#45;&gt;20 -->
<g id="edge44" class="edge"><title>21&#45;&gt;20</title>
<path fill="none" stroke="grey" stroke-width="2" d="M720.26,-654.731C778.004,-644.956 865.804,-629.216 941.359,-612 942.602,-611.717 943.857,-611.426 945.121,-611.128"/>
<polygon fill="grey" stroke="grey" stroke-width="2" points="946.044,-614.506 954.929,-608.734 944.384,-607.705 946.044,-614.506"/>
</g>
<!-- 24 -->
<g id="node25" class="node"><title>24</title>
<path fill="none" stroke="#56b1d8" stroke-width="2" d="M1134.73,-612C1134.73,-612 1083.98,-612 1083.98,-612 1077.98,-612 1071.98,-606 1071.98,-600 1071.98,-600 1071.98,-588 1071.98,-588 1071.98,-582 1077.98,-576 1083.98,-576 1083.98,-576 1134.73,-576 1134.73,-576 1140.73,-576 1146.73,-582 1146.73,-588 1146.73,-588 1146.73,-600 1146.73,-600 1146.73,-606 1140.73,-612 1134.73,-612"/>
<text text-anchor="middle" x="1109.36" y="-591" font-family="sans" font-size="10.00">diamond_run</text>
</g>
<!-- 21&#45;&gt;24 -->
<g id="edge48" class="edge"><title>21&#45;&gt;24</title>
<path fill="none" stroke="grey" stroke-width="2" d="M720.229,-661.016C800.522,-654.964 943.329,-640.951 1062.36,-612 1062.46,-611.976 1062.56,-611.951 1062.66,-611.927"/>
<polygon fill="grey" stroke="grey" stroke-width="2" points="1063.43,-615.345 1072.13,-609.292 1061.56,-608.601 1063.43,-615.345"/>
</g>
<!-- 30 -->
<g id="node31" class="node"><title>30</title>
<path fill="none" stroke="#56d0d8" stroke-width="2" d="M1195.05,-396C1195.05,-396 1081.67,-396 1081.67,-396 1075.67,-396 1069.67,-390 1069.67,-384 1069.67,-384 1069.67,-372 1069.67,-372 1069.67,-366 1075.67,-360 1081.67,-360 1081.67,-360 1195.05,-360 1195.05,-360 1201.05,-360 1207.05,-366 1207.05,-372 1207.05,-372 1207.05,-384 1207.05,-384 1207.05,-390 1201.05,-396 1195.05,-396"/>
<text text-anchor="middle" x="1138.36" y="-375" font-family="sans" font-size="10.00">concatenate_with_previous</text>
</g>
<!-- 21&#45;&gt;30 -->
<g id="edge54" class="edge"><title>21&#45;&gt;30</title>
<path fill="none" stroke="grey" stroke-width="2" d="M720.445,-662.907C847.966,-658.026 1126.76,-643.801 1155.36,-612 1207.14,-554.421 1172.23,-453.132 1151.14,-405.355"/>
<polygon fill="grey" stroke="grey" stroke-width="2" points="1154.21,-403.658 1146.88,-396.007 1147.84,-406.558 1154.21,-403.658"/>
</g>
<!-- 22&#45;&gt;0 -->
<g id="edge22" class="edge"><title>22&#45;&gt;0</title>
<path fill="none" stroke="grey" stroke-width="2" d="M230.872,-719.887C220.06,-693.577 201.359,-641.366 201.359,-595 201.359,-595 201.359,-595 201.359,-161 201.359,-116.058 213.754,-99.4228 249.359,-72 303.327,-30.4349 385.11,-20.8608 432.274,-19.0102"/>
<polygon fill="grey" stroke="grey" stroke-width="2" points="432.462,-22.5063 442.354,-18.7123 432.255,-15.5093 432.462,-22.5063"/>
</g>
<!-- 22&#45;&gt;21 -->
<g id="edge45" class="edge"><title>22&#45;&gt;21</title>
<path fill="none" stroke="grey" stroke-width="2" d="M285.204,-729.174C357.921,-717.025 498.527,-693.535 584.554,-679.163"/>
<polygon fill="grey" stroke="grey" stroke-width="2" points="585.222,-682.6 594.509,-677.5 584.069,-675.696 585.222,-682.6"/>
</g>
<!-- 23 -->
<g id="node24" class="node"><title>23</title>
<path fill="none" stroke="#d89556" stroke-width="2" d="M1132.85,-468C1132.85,-468 1085.87,-468 1085.87,-468 1079.87,-468 1073.87,-462 1073.87,-456 1073.87,-456 1073.87,-444 1073.87,-444 1073.87,-438 1079.87,-432 1085.87,-432 1085.87,-432 1132.85,-432 1132.85,-432 1138.85,-432 1144.85,-438 1144.85,-444 1144.85,-444 1144.85,-456 1144.85,-456 1144.85,-462 1138.85,-468 1132.85,-468"/>
<text text-anchor="middle" x="1109.36" y="-447" font-family="sans" font-size="10.00">concatenate</text>
</g>
<!-- 23&#45;&gt;0 -->
<g id="edge23" class="edge"><title>23&#45;&gt;0</title>
<path fill="none" stroke="grey" stroke-width="2" d="M1088.92,-431.794C1078.85,-422.246 1067.4,-409.573 1060.36,-396 1041.74,-360.091 1041.36,-347.447 1041.36,-307 1041.36,-307 1041.36,-307 1041.36,-161 1041.36,-120.031 1048.64,-98.4524 1017.36,-72 978.431,-39.0841 623.806,-24.2219 506.697,-20.1826"/>
<polygon fill="grey" stroke="grey" stroke-width="2" points="506.553,-16.6759 496.441,-19.8358 506.317,-23.6719 506.553,-16.6759"/>
</g>
<!-- 23&#45;&gt;30 -->
<g id="edge55" class="edge"><title>23&#45;&gt;30</title>
<path fill="none" stroke="grey" stroke-width="2" d="M1116.53,-431.697C1119.79,-423.813 1123.73,-414.304 1127.36,-405.546"/>
<polygon fill="grey" stroke="grey" stroke-width="2" points="1130.68,-406.683 1131.27,-396.104 1124.21,-404.003 1130.68,-406.683"/>
</g>
<!-- 24&#45;&gt;0 -->
<g id="edge24" class="edge"><title>24&#45;&gt;0</title>
<path fill="none" stroke="grey" stroke-width="2" d="M1084.77,-575.928C1053.46,-551.958 1003.36,-505.145 1003.36,-451 1003.36,-451 1003.36,-451 1003.36,-161 1003.36,-118.965 1004.43,-97.9515 971.359,-72 934.956,-43.4299 616.896,-25.9254 506.73,-20.6754"/>
<polygon fill="grey" stroke="grey" stroke-width="2" points="506.587,-17.1649 496.434,-20.1917 506.258,-24.1572 506.587,-17.1649"/>
</g>
<!-- 26 -->
<g id="node27" class="node"><title>26</title>
<path fill="none" stroke="#9fd856" stroke-width="2" d="M1130.33,-540C1130.33,-540 1088.39,-540 1088.39,-540 1082.39,-540 1076.39,-534 1076.39,-528 1076.39,-528 1076.39,-516 1076.39,-516 1076.39,-510 1082.39,-504 1088.39,-504 1088.39,-504 1130.33,-504 1130.33,-504 1136.33,-504 1142.33,-510 1142.33,-516 1142.33,-516 1142.33,-528 1142.33,-528 1142.33,-534 1136.33,-540 1130.33,-540"/>
<text text-anchor="middle" x="1109.36" y="-519" font-family="sans" font-size="10.00">collect_hits</text>
</g>
<!-- 24&#45;&gt;26 -->
<g id="edge50" class="edge"><title>24&#45;&gt;26</title>
<path fill="none" stroke="grey" stroke-width="2" d="M1109.36,-575.697C1109.36,-567.983 1109.36,-558.712 1109.36,-550.112"/>
<polygon fill="grey" stroke="grey" stroke-width="2" points="1112.86,-550.104 1109.36,-540.104 1105.86,-550.104 1112.86,-550.104"/>
</g>
<!-- 25 -->
<g id="node26" class="node"><title>25</title>
<path fill="none" stroke="#88d856" stroke-width="2" d="M1116.36,-108C1116.36,-108 1086.36,-108 1086.36,-108 1080.36,-108 1074.36,-102 1074.36,-96 1074.36,-96 1074.36,-84 1074.36,-84 1074.36,-78 1080.36,-72 1086.36,-72 1086.36,-72 1116.36,-72 1116.36,-72 1122.36,-72 1128.36,-78 1128.36,-84 1128.36,-84 1128.36,-96 1128.36,-96 1128.36,-102 1122.36,-108 1116.36,-108"/>
<text text-anchor="middle" x="1101.36" y="-87" font-family="sans" font-size="10.00">report</text>
</g>
<!-- 25&#45;&gt;0 -->
<g id="edge25" class="edge"><title>25&#45;&gt;0</title>
<path fill="none" stroke="grey" stroke-width="2" d="M1073.99,-77.5446C1067.94,-75.3938 1061.51,-73.3878 1055.36,-72 851.957,-26.067 600.338,-19.688 506.728,-18.9887"/>
<polygon fill="grey" stroke="grey" stroke-width="2" points="506.641,-15.4882 496.621,-18.9312 506.601,-22.4881 506.641,-15.4882"/>
</g>
<!-- 26&#45;&gt;23 -->
<g id="edge47" class="edge"><title>26&#45;&gt;23</title>
<path fill="none" stroke="grey" stroke-width="2" d="M1109.36,-503.697C1109.36,-495.983 1109.36,-486.712 1109.36,-478.112"/>
<polygon fill="grey" stroke="grey" stroke-width="2" points="1112.86,-478.104 1109.36,-468.104 1105.86,-478.104 1112.86,-478.104"/>
</g>
<!-- 27 -->
<g id="node28" class="node"><title>27</title>
<path fill="none" stroke="#56d8c1" stroke-width="2" d="M1127.45,-180C1127.45,-180 1085.27,-180 1085.27,-180 1079.27,-180 1073.27,-174 1073.27,-168 1073.27,-168 1073.27,-156 1073.27,-156 1073.27,-150 1079.27,-144 1085.27,-144 1085.27,-144 1127.45,-144 1127.45,-144 1133.45,-144 1139.45,-150 1139.45,-156 1139.45,-156 1139.45,-168 1139.45,-168 1139.45,-174 1133.45,-180 1127.45,-180"/>
<text text-anchor="middle" x="1106.36" y="-159" font-family="sans" font-size="10.00">create_tree</text>
</g>
<!-- 27&#45;&gt;25 -->
<g id="edge49" class="edge"><title>27&#45;&gt;25</title>
<path fill="none" stroke="grey" stroke-width="2" d="M1105.12,-143.697C1104.57,-135.983 1103.91,-126.712 1103.3,-118.112"/>
<polygon fill="grey" stroke="grey" stroke-width="2" points="1106.78,-117.83 1102.58,-108.104 1099.8,-118.328 1106.78,-117.83"/>
</g>
<!-- 28 -->
<g id="node29" class="node"><title>28</title>
<path fill="none" stroke="#d85656" stroke-width="2" d="M1130.36,-252C1130.36,-252 1100.36,-252 1100.36,-252 1094.36,-252 1088.36,-246 1088.36,-240 1088.36,-240 1088.36,-228 1088.36,-228 1088.36,-222 1094.36,-216 1100.36,-216 1100.36,-216 1130.36,-216 1130.36,-216 1136.36,-216 1142.36,-222 1142.36,-228 1142.36,-228 1142.36,-240 1142.36,-240 1142.36,-246 1136.36,-252 1130.36,-252"/>
<text text-anchor="middle" x="1115.36" y="-231" font-family="sans" font-size="10.00">align</text>
</g>
<!-- 28&#45;&gt;27 -->
<g id="edge51" class="edge"><title>28&#45;&gt;27</title>
<path fill="none" stroke="grey" stroke-width="2" d="M1113.13,-215.697C1112.14,-207.983 1110.95,-198.712 1109.85,-190.112"/>
<polygon fill="grey" stroke="grey" stroke-width="2" points="1113.31,-189.576 1108.56,-180.104 1106.36,-190.469 1113.31,-189.576"/>
</g>
<!-- 29 -->
<g id="node30" class="node"><title>29</title>
<path fill="none" stroke="#5692d8" stroke-width="2" d="M1142.01,-324C1142.01,-324 1098.71,-324 1098.71,-324 1092.71,-324 1086.71,-318 1086.71,-312 1086.71,-312 1086.71,-300 1086.71,-300 1086.71,-294 1092.71,-288 1098.71,-288 1098.71,-288 1142.01,-288 1142.01,-288 1148.01,-288 1154.01,-294 1154.01,-300 1154.01,-300 1154.01,-312 1154.01,-312 1154.01,-318 1148.01,-324 1142.01,-324"/>
<text text-anchor="middle" x="1120.36" y="-303" font-family="sans" font-size="10.00">deduplicate</text>
</g>
<!-- 29&#45;&gt;28 -->
<g id="edge52" class="edge"><title>29&#45;&gt;28</title>
<path fill="none" stroke="grey" stroke-width="2" d="M1119.12,-287.697C1118.57,-279.983 1117.91,-270.712 1117.3,-262.112"/>
<polygon fill="grey" stroke="grey" stroke-width="2" points="1120.78,-261.83 1116.58,-252.104 1113.8,-262.328 1120.78,-261.83"/>
</g>
<!-- 30&#45;&gt;29 -->
<g id="edge53" class="edge"><title>30&#45;&gt;29</title>
<path fill="none" stroke="grey" stroke-width="2" d="M1133.91,-359.697C1131.9,-351.898 1129.49,-342.509 1127.26,-333.829"/>
<polygon fill="grey" stroke="grey" stroke-width="2" points="1130.64,-332.918 1124.76,-324.104 1123.86,-334.661 1130.64,-332.918"/>
</g>
</g>
</svg>
