<?xml version="1.0" encoding="UTF-8" standalone="no"?>
<!DOCTYPE svg PUBLIC "-//W3C//DTD SVG 1.1//EN"
 "http://www.w3.org/Graphics/SVG/1.1/DTD/svg11.dtd">
<!-- Generated by graphviz version 2.47.3 (20210619.2315)
 -->
<!-- Title: snakemake_dag Pages: 1 -->
<svg width="1615pt" height="1124pt"
 viewBox="0.00 0.00 1614.64 1124.00" xmlns="http://www.w3.org/2000/svg" xmlns:xlink="http://www.w3.org/1999/xlink">
<g id="graph0" class="graph" transform="scale(1 1) rotate(0) translate(4 1120)">
<title>snakemake_dag</title>
<polygon fill="white" stroke="transparent" points="-4,4 -4,-1120 1610.64,-1120 1610.64,4 -4,4"/>
<!-- 0 -->
<g id="node1" class="node">
<title>0</title>
<path fill="none" stroke="#56d863" stroke-width="2" d="M489.5,-36C489.5,-36 459.5,-36 459.5,-36 453.5,-36 447.5,-30 447.5,-24 447.5,-24 447.5,-12 447.5,-12 447.5,-6 453.5,0 459.5,0 459.5,0 489.5,0 489.5,0 495.5,0 501.5,-6 501.5,-12 501.5,-12 501.5,-24 501.5,-24 501.5,-30 495.5,-36 489.5,-36"/>
<text text-anchor="middle" x="474.5" y="-15.5" font-family="sans" font-size="10.00">all</text>
</g>
<!-- 1 -->
<g id="node2" class="node">
<title>1</title>
<path fill="none" stroke="#88d856" stroke-width="2" stroke-dasharray="5,2" d="M77,-1116C77,-1116 12,-1116 12,-1116 6,-1116 0,-1110 0,-1104 0,-1104 0,-1092 0,-1092 0,-1086 6,-1080 12,-1080 12,-1080 77,-1080 77,-1080 83,-1080 89,-1086 89,-1092 89,-1092 89,-1104 89,-1104 89,-1110 83,-1116 77,-1116"/>
<text text-anchor="middle" x="44.5" y="-1095.5" font-family="sans" font-size="10.00">download_ncbi</text>
</g>
<!-- 1&#45;&gt;0 -->
<g id="edge1" class="edge">
<title>1&#45;&gt;0</title>
<path fill="none" stroke="grey" stroke-width="2" d="M38.02,-1079.79C28.67,-1053.36 12.5,-1000.99 12.5,-955 12.5,-955 12.5,-955 12.5,-161 12.5,-116.87 20.56,-97.6 56.5,-72 117.25,-28.73 346.46,-20.77 437.19,-19.32"/>
<polygon fill="grey" stroke="grey" stroke-width="2" points="437.35,-22.81 447.3,-19.17 437.25,-15.81 437.35,-22.81"/>
</g>
<!-- 2 -->
<g id="node3" class="node">
<title>2</title>
<path fill="none" stroke="#56d882" stroke-width="2" stroke-dasharray="5,2" d="M100.5,-1044C100.5,-1044 52.5,-1044 52.5,-1044 46.5,-1044 40.5,-1038 40.5,-1032 40.5,-1032 40.5,-1020 40.5,-1020 40.5,-1014 46.5,-1008 52.5,-1008 52.5,-1008 100.5,-1008 100.5,-1008 106.5,-1008 112.5,-1014 112.5,-1020 112.5,-1020 112.5,-1032 112.5,-1032 112.5,-1038 106.5,-1044 100.5,-1044"/>
<text text-anchor="middle" x="76.5" y="-1023.5" font-family="sans" font-size="10.00">gather_gbff</text>
</g>
<!-- 1&#45;&gt;2 -->
<g id="edge26" class="edge">
<title>1&#45;&gt;2</title>
<path fill="none" stroke="grey" stroke-width="2" d="M52.41,-1079.7C56.05,-1071.73 60.45,-1062.1 64.49,-1053.26"/>
<polygon fill="grey" stroke="grey" stroke-width="2" points="67.71,-1054.65 68.68,-1044.1 61.34,-1051.74 67.71,-1054.65"/>
</g>
<!-- 2&#45;&gt;0 -->
<g id="edge2" class="edge">
<title>2&#45;&gt;0</title>
<path fill="none" stroke="grey" stroke-width="2" d="M71.24,-1007.7C63.64,-981.14 50.5,-928.61 50.5,-883 50.5,-883 50.5,-883 50.5,-161 50.5,-116.68 59.45,-97.78 95.5,-72 149.85,-33.13 352.78,-22.62 437.24,-19.9"/>
<polygon fill="grey" stroke="grey" stroke-width="2" points="437.52,-23.4 447.41,-19.6 437.31,-16.4 437.52,-23.4"/>
</g>
<!-- 3 -->
<g id="node4" class="node">
<title>3</title>
<path fill="none" stroke="#56d0d8" stroke-width="2" stroke-dasharray="5,2" d="M156,-972C156,-972 91,-972 91,-972 85,-972 79,-966 79,-960 79,-960 79,-948 79,-948 79,-942 85,-936 91,-936 91,-936 156,-936 156,-936 162,-936 168,-942 168,-948 168,-948 168,-960 168,-960 168,-966 162,-972 156,-972"/>
<text text-anchor="middle" x="123.5" y="-951.5" font-family="sans" font-size="10.00">gunzip_zipfiles</text>
</g>
<!-- 2&#45;&gt;3 -->
<g id="edge27" class="edge">
<title>2&#45;&gt;3</title>
<path fill="none" stroke="grey" stroke-width="2" d="M88.12,-1007.7C93.64,-999.47 100.35,-989.48 106.43,-980.42"/>
<polygon fill="grey" stroke="grey" stroke-width="2" points="109.35,-982.36 112.02,-972.1 103.54,-978.46 109.35,-982.36"/>
</g>
<!-- 3&#45;&gt;0 -->
<g id="edge3" class="edge">
<title>3&#45;&gt;0</title>
<path fill="none" stroke="grey" stroke-width="2" d="M116.42,-935.85C106.19,-909.49 88.5,-857.21 88.5,-811 88.5,-811 88.5,-811 88.5,-161 88.5,-116.47 98.37,-98.02 134.5,-72 182.42,-37.49 359.1,-24.67 437.09,-20.62"/>
<polygon fill="grey" stroke="grey" stroke-width="2" points="437.6,-24.1 447.41,-20.11 437.25,-17.11 437.6,-24.1"/>
</g>
<!-- 4 -->
<g id="node5" class="node">
<title>4</title>
<path fill="none" stroke="#56d8c1" stroke-width="2" d="M224,-900C224,-900 129,-900 129,-900 123,-900 117,-894 117,-888 117,-888 117,-876 117,-876 117,-870 123,-864 129,-864 129,-864 224,-864 224,-864 230,-864 236,-870 236,-876 236,-876 236,-888 236,-888 236,-894 230,-900 224,-900"/>
<text text-anchor="middle" x="176.5" y="-879.5" font-family="sans" font-size="10.00">convert_nucl_protein</text>
</g>
<!-- 3&#45;&gt;4 -->
<g id="edge28" class="edge">
<title>3&#45;&gt;4</title>
<path fill="none" stroke="grey" stroke-width="2" d="M136.6,-935.7C142.89,-927.39 150.55,-917.28 157.46,-908.14"/>
<polygon fill="grey" stroke="grey" stroke-width="2" points="160.3,-910.19 163.55,-900.1 154.72,-905.96 160.3,-910.19"/>
</g>
<!-- 4&#45;&gt;0 -->
<g id="edge4" class="edge">
<title>4&#45;&gt;0</title>
<path fill="none" stroke="grey" stroke-width="2" d="M164.39,-863.57C157.94,-853.56 150.35,-840.52 145.5,-828 130.88,-790.29 126.5,-779.45 126.5,-739 126.5,-739 126.5,-739 126.5,-161 126.5,-116.47 136.62,-98.37 172.5,-72 214.01,-41.49 365.4,-26.82 436.78,-21.48"/>
<polygon fill="grey" stroke="grey" stroke-width="2" points="437.39,-24.94 447.11,-20.73 436.89,-17.96 437.39,-24.94"/>
</g>
<!-- 5 -->
<g id="node6" class="node">
<title>5</title>
<path fill="none" stroke="#9fd856" stroke-width="2" d="M238.5,-828C238.5,-828 166.5,-828 166.5,-828 160.5,-828 154.5,-822 154.5,-816 154.5,-816 154.5,-804 154.5,-804 154.5,-798 160.5,-792 166.5,-792 166.5,-792 238.5,-792 238.5,-792 244.5,-792 250.5,-798 250.5,-804 250.5,-804 250.5,-816 250.5,-816 250.5,-822 244.5,-828 238.5,-828"/>
<text text-anchor="middle" x="202.5" y="-807.5" font-family="sans" font-size="10.00">create_mapover</text>
</g>
<!-- 4&#45;&gt;5 -->
<g id="edge29" class="edge">
<title>4&#45;&gt;5</title>
<path fill="none" stroke="grey" stroke-width="2" d="M182.93,-863.7C185.86,-855.81 189.39,-846.3 192.64,-837.55"/>
<polygon fill="grey" stroke="grey" stroke-width="2" points="195.95,-838.7 196.15,-828.1 189.38,-836.26 195.95,-838.7"/>
</g>
<!-- 5&#45;&gt;0 -->
<g id="edge5" class="edge">
<title>5&#45;&gt;0</title>
<path fill="none" stroke="grey" stroke-width="2" d="M194.81,-791.91C183.71,-765.62 164.5,-713.45 164.5,-667 164.5,-667 164.5,-667 164.5,-161 164.5,-116.27 175.67,-98.78 211.5,-72 246.75,-45.65 373.28,-29.32 437.11,-22.58"/>
<polygon fill="grey" stroke="grey" stroke-width="2" points="437.57,-26.05 447.16,-21.54 436.85,-19.09 437.57,-26.05"/>
</g>
<!-- 8 -->
<g id="node9" class="node">
<title>8</title>
<path fill="none" stroke="#68d856" stroke-width="2" d="M284,-756C284,-756 205,-756 205,-756 199,-756 193,-750 193,-744 193,-744 193,-732 193,-732 193,-726 199,-720 205,-720 205,-720 284,-720 284,-720 290,-720 296,-726 296,-732 296,-732 296,-744 296,-744 296,-750 290,-756 284,-756"/>
<text text-anchor="middle" x="244.5" y="-735.5" font-family="sans" font-size="10.00">extract_from_gbk</text>
</g>
<!-- 5&#45;&gt;8 -->
<g id="edge32" class="edge">
<title>5&#45;&gt;8</title>
<path fill="none" stroke="grey" stroke-width="2" d="M212.88,-791.7C217.76,-783.56 223.69,-773.69 229.08,-764.7"/>
<polygon fill="grey" stroke="grey" stroke-width="2" points="232.09,-766.48 234.24,-756.1 226.09,-762.88 232.09,-766.48"/>
</g>
<!-- 6 -->
<g id="node7" class="node">
<title>6</title>
<path fill="none" stroke="#5692d8" stroke-width="2" d="M496.5,-540C496.5,-540 280.5,-540 280.5,-540 274.5,-540 268.5,-534 268.5,-528 268.5,-528 268.5,-516 268.5,-516 268.5,-510 274.5,-504 280.5,-504 280.5,-504 496.5,-504 496.5,-504 502.5,-504 508.5,-510 508.5,-516 508.5,-516 508.5,-528 508.5,-528 508.5,-534 502.5,-540 496.5,-540"/>
<text text-anchor="middle" x="388.5" y="-525" font-family="sans" font-size="10.00">diamond_db</text>
<text text-anchor="middle" x="388.5" y="-514" font-family="sans" font-size="10.00">sample: staph_ribosomal_proteins/atccL14.aa</text>
</g>
<!-- 6&#45;&gt;0 -->
<g id="edge6" class="edge">
<title>6&#45;&gt;0</title>
<path fill="none" stroke="grey" stroke-width="2" d="M343.09,-503.9C326.42,-495.48 308.87,-483.7 297.5,-468 273.77,-435.24 278.5,-419.45 278.5,-379 278.5,-379 278.5,-379 278.5,-161 278.5,-115.41 294.64,-101.38 329.5,-72 360.52,-45.85 405.56,-32.09 437.19,-25.22"/>
<polygon fill="grey" stroke="grey" stroke-width="2" points="438.26,-28.57 447.36,-23.14 436.86,-21.71 438.26,-28.57"/>
</g>
<!-- 7 -->
<g id="node8" class="node">
<title>7</title>
<path fill="none" stroke="#d85656" stroke-width="2" d="M927,-684C927,-684 816,-684 816,-684 810,-684 804,-678 804,-672 804,-672 804,-660 804,-660 804,-654 810,-648 816,-648 816,-648 927,-648 927,-648 933,-648 939,-654 939,-660 939,-660 939,-672 939,-672 939,-678 933,-684 927,-684"/>
<text text-anchor="middle" x="871.5" y="-663.5" font-family="sans" font-size="10.00">check_for_missing_seqs</text>
</g>
<!-- 7&#45;&gt;0 -->
<g id="edge21" class="edge">
<title>7&#45;&gt;0</title>
<path fill="none" stroke="grey" stroke-width="2" d="M803.97,-663.98C641.19,-659.7 240.5,-637.53 240.5,-523 240.5,-523 240.5,-523 240.5,-161 240.5,-115.85 254.2,-100.16 289.5,-72 332.54,-37.67 396.82,-25.58 437.16,-21.32"/>
<polygon fill="grey" stroke="grey" stroke-width="2" points="437.75,-24.78 447.37,-20.35 437.09,-17.81 437.75,-24.78"/>
</g>
<!-- 7&#45;&gt;6 -->
<g id="edge30" class="edge">
<title>7&#45;&gt;6</title>
<path fill="none" stroke="grey" stroke-width="2" d="M803.68,-663.34C731.7,-659.63 615.69,-647.98 522.5,-612 482.3,-596.48 441.88,-567.33 416.11,-546.63"/>
<polygon fill="grey" stroke="grey" stroke-width="2" points="418.23,-543.85 408.27,-540.23 413.81,-549.27 418.23,-543.85"/>
</g>
<!-- 9 -->
<g id="node10" class="node">
<title>9</title>
<path fill="none" stroke="#5692d8" stroke-width="2" d="M534.5,-468C534.5,-468 318.5,-468 318.5,-468 312.5,-468 306.5,-462 306.5,-456 306.5,-456 306.5,-444 306.5,-444 306.5,-438 312.5,-432 318.5,-432 318.5,-432 534.5,-432 534.5,-432 540.5,-432 546.5,-438 546.5,-444 546.5,-444 546.5,-456 546.5,-456 546.5,-462 540.5,-468 534.5,-468"/>
<text text-anchor="middle" x="426.5" y="-453" font-family="sans" font-size="10.00">diamond_db</text>
<text text-anchor="middle" x="426.5" y="-442" font-family="sans" font-size="10.00">sample: staph_ribosomal_proteins/atccL16.aa</text>
</g>
<!-- 7&#45;&gt;9 -->
<g id="edge33" class="edge">
<title>7&#45;&gt;9</title>
<path fill="none" stroke="grey" stroke-width="2" d="M803.8,-661.12C723.81,-655.25 596.96,-641.5 560.5,-612 520.34,-579.5 551.22,-543.14 517.5,-504 506.63,-491.38 491.97,-481.03 477.6,-472.94"/>
<polygon fill="grey" stroke="grey" stroke-width="2" points="479.19,-469.82 468.73,-468.19 475.89,-475.99 479.19,-469.82"/>
</g>
<!-- 10 -->
<g id="node11" class="node">
<title>10</title>
<path fill="none" stroke="#5692d8" stroke-width="2" d="M572.5,-396C572.5,-396 356.5,-396 356.5,-396 350.5,-396 344.5,-390 344.5,-384 344.5,-384 344.5,-372 344.5,-372 344.5,-366 350.5,-360 356.5,-360 356.5,-360 572.5,-360 572.5,-360 578.5,-360 584.5,-366 584.5,-372 584.5,-372 584.5,-384 584.5,-384 584.5,-390 578.5,-396 572.5,-396"/>
<text text-anchor="middle" x="464.5" y="-381" font-family="sans" font-size="10.00">diamond_db</text>
<text text-anchor="middle" x="464.5" y="-370" font-family="sans" font-size="10.00">sample: staph_ribosomal_proteins/atccL18.aa</text>
</g>
<!-- 7&#45;&gt;10 -->
<g id="edge34" class="edge">
<title>7&#45;&gt;10</title>
<path fill="none" stroke="grey" stroke-width="2" d="M803.76,-660.15C732.68,-653.65 627.3,-639.6 598.5,-612 539.11,-555.1 604.55,-498.02 555.5,-432 545.93,-419.12 532.22,-408.84 518.35,-400.89"/>
<polygon fill="grey" stroke="grey" stroke-width="2" points="519.71,-397.65 509.24,-396 516.39,-403.82 519.71,-397.65"/>
</g>
<!-- 11 -->
<g id="node12" class="node">
<title>11</title>
<path fill="none" stroke="#5692d8" stroke-width="2" d="M607.5,-324C607.5,-324 397.5,-324 397.5,-324 391.5,-324 385.5,-318 385.5,-312 385.5,-312 385.5,-300 385.5,-300 385.5,-294 391.5,-288 397.5,-288 397.5,-288 607.5,-288 607.5,-288 613.5,-288 619.5,-294 619.5,-300 619.5,-300 619.5,-312 619.5,-312 619.5,-318 613.5,-324 607.5,-324"/>
<text text-anchor="middle" x="502.5" y="-309" font-family="sans" font-size="10.00">diamond_db</text>
<text text-anchor="middle" x="502.5" y="-298" font-family="sans" font-size="10.00">sample: staph_ribosomal_proteins/atccL2.aa</text>
</g>
<!-- 7&#45;&gt;11 -->
<g id="edge35" class="edge">
<title>7&#45;&gt;11</title>
<path fill="none" stroke="grey" stroke-width="2" d="M803.88,-657.55C743.21,-649.51 660.19,-634.73 636.5,-612 606.93,-583.64 612.5,-563.97 612.5,-523 612.5,-523 612.5,-523 612.5,-449 612.5,-408.55 617.23,-392.76 593.5,-360 584.17,-347.13 570.69,-336.88 556.94,-328.97"/>
<polygon fill="grey" stroke="grey" stroke-width="2" points="558.37,-325.76 547.91,-324.1 555.05,-331.93 558.37,-325.76"/>
</g>
<!-- 12 -->
<g id="node13" class="node">
<title>12</title>
<path fill="none" stroke="#5692d8" stroke-width="2" d="M648.5,-252C648.5,-252 432.5,-252 432.5,-252 426.5,-252 420.5,-246 420.5,-240 420.5,-240 420.5,-228 420.5,-228 420.5,-222 426.5,-216 432.5,-216 432.5,-216 648.5,-216 648.5,-216 654.5,-216 660.5,-222 660.5,-228 660.5,-228 660.5,-240 660.5,-240 660.5,-246 654.5,-252 648.5,-252"/>
<text text-anchor="middle" x="540.5" y="-237" font-family="sans" font-size="10.00">diamond_db</text>
<text text-anchor="middle" x="540.5" y="-226" font-family="sans" font-size="10.00">sample: staph_ribosomal_proteins/atccL22.aa</text>
</g>
<!-- 7&#45;&gt;12 -->
<g id="edge36" class="edge">
<title>7&#45;&gt;12</title>
<path fill="none" stroke="grey" stroke-width="2" d="M803.74,-663.32C761.25,-658.69 708.32,-645.8 674.5,-612 645.52,-583.04 650.5,-563.97 650.5,-523 650.5,-523 650.5,-523 650.5,-377 650.5,-336.25 652.69,-320.79 628.5,-288 619.12,-275.28 605.69,-265.02 592.14,-257.04"/>
<polygon fill="grey" stroke="grey" stroke-width="2" points="593.71,-253.9 583.26,-252.12 590.32,-260.03 593.71,-253.9"/>
</g>
<!-- 13 -->
<g id="node14" class="node">
<title>13</title>
<path fill="none" stroke="#5692d8" stroke-width="2" d="M686.5,-180C686.5,-180 470.5,-180 470.5,-180 464.5,-180 458.5,-174 458.5,-168 458.5,-168 458.5,-156 458.5,-156 458.5,-150 464.5,-144 470.5,-144 470.5,-144 686.5,-144 686.5,-144 692.5,-144 698.5,-150 698.5,-156 698.5,-156 698.5,-168 698.5,-168 698.5,-174 692.5,-180 686.5,-180"/>
<text text-anchor="middle" x="578.5" y="-165" font-family="sans" font-size="10.00">diamond_db</text>
<text text-anchor="middle" x="578.5" y="-154" font-family="sans" font-size="10.00">sample: staph_ribosomal_proteins/atccL24.aa</text>
</g>
<!-- 7&#45;&gt;13 -->
<g id="edge37" class="edge">
<title>7&#45;&gt;13</title>
<path fill="none" stroke="grey" stroke-width="2" d="M803.64,-657.26C771.98,-650.3 736.16,-637.08 712.5,-612 684.39,-582.2 688.5,-563.97 688.5,-523 688.5,-523 688.5,-523 688.5,-305 688.5,-264.55 693.23,-248.76 669.5,-216 660.17,-203.13 646.69,-192.88 632.94,-184.97"/>
<polygon fill="grey" stroke="grey" stroke-width="2" points="634.37,-181.76 623.91,-180.1 631.05,-187.93 634.37,-181.76"/>
</g>
<!-- 14 -->
<g id="node15" class="node">
<title>14</title>
<path fill="none" stroke="#5692d8" stroke-width="2" d="M724.5,-108C724.5,-108 514.5,-108 514.5,-108 508.5,-108 502.5,-102 502.5,-96 502.5,-96 502.5,-84 502.5,-84 502.5,-78 508.5,-72 514.5,-72 514.5,-72 724.5,-72 724.5,-72 730.5,-72 736.5,-78 736.5,-84 736.5,-84 736.5,-96 736.5,-96 736.5,-102 730.5,-108 724.5,-108"/>
<text text-anchor="middle" x="619.5" y="-93" font-family="sans" font-size="10.00">diamond_db</text>
<text text-anchor="middle" x="619.5" y="-82" font-family="sans" font-size="10.00">sample: staph_ribosomal_proteins/atccL3.aa</text>
</g>
<!-- 7&#45;&gt;14 -->
<g id="edge38" class="edge">
<title>7&#45;&gt;14</title>
<path fill="none" stroke="grey" stroke-width="2" d="M833.4,-647.97C790.44,-625.86 726.5,-582.9 726.5,-523 726.5,-523 726.5,-523 726.5,-233 726.5,-192.55 730.99,-176.93 707.5,-144 698.41,-131.26 685.21,-121.02 671.78,-113.07"/>
<polygon fill="grey" stroke="grey" stroke-width="2" points="673.41,-109.97 662.97,-108.17 670.01,-116.09 673.41,-109.97"/>
</g>
<!-- 15 -->
<g id="node16" class="node">
<title>15</title>
<path fill="none" stroke="#5692d8" stroke-width="2" d="M976.5,-540C976.5,-540 766.5,-540 766.5,-540 760.5,-540 754.5,-534 754.5,-528 754.5,-528 754.5,-516 754.5,-516 754.5,-510 760.5,-504 766.5,-504 766.5,-504 976.5,-504 976.5,-504 982.5,-504 988.5,-510 988.5,-516 988.5,-516 988.5,-528 988.5,-528 988.5,-534 982.5,-540 976.5,-540"/>
<text text-anchor="middle" x="871.5" y="-525" font-family="sans" font-size="10.00">diamond_db</text>
<text text-anchor="middle" x="871.5" y="-514" font-family="sans" font-size="10.00">sample: staph_ribosomal_proteins/atccL4.aa</text>
</g>
<!-- 7&#45;&gt;15 -->
<g id="edge39" class="edge">
<title>7&#45;&gt;15</title>
<path fill="none" stroke="grey" stroke-width="2" d="M871.5,-647.87C871.5,-623.67 871.5,-579.21 871.5,-550.39"/>
<polygon fill="grey" stroke="grey" stroke-width="2" points="875,-550.19 871.5,-540.19 868,-550.19 875,-550.19"/>
</g>
<!-- 16 -->
<g id="node17" class="node">
<title>16</title>
<path fill="none" stroke="#5692d8" stroke-width="2" d="M1014.5,-468C1014.5,-468 804.5,-468 804.5,-468 798.5,-468 792.5,-462 792.5,-456 792.5,-456 792.5,-444 792.5,-444 792.5,-438 798.5,-432 804.5,-432 804.5,-432 1014.5,-432 1014.5,-432 1020.5,-432 1026.5,-438 1026.5,-444 1026.5,-444 1026.5,-456 1026.5,-456 1026.5,-462 1020.5,-468 1014.5,-468"/>
<text text-anchor="middle" x="909.5" y="-453" font-family="sans" font-size="10.00">diamond_db</text>
<text text-anchor="middle" x="909.5" y="-442" font-family="sans" font-size="10.00">sample: staph_ribosomal_proteins/atccL5.aa</text>
</g>
<!-- 7&#45;&gt;16 -->
<g id="edge40" class="edge">
<title>7&#45;&gt;16</title>
<path fill="none" stroke="grey" stroke-width="2" d="M898.6,-647.97C929.27,-626.92 977.54,-587.93 997.5,-540 1003.65,-525.23 1005.37,-517.93 997.5,-504 990.16,-491.01 978.21,-480.84 965.46,-473.05"/>
<polygon fill="grey" stroke="grey" stroke-width="2" points="966.97,-469.89 956.54,-468.03 963.54,-475.99 966.97,-469.89"/>
</g>
<!-- 17 -->
<g id="node18" class="node">
<title>17</title>
<path fill="none" stroke="#5692d8" stroke-width="2" d="M1052.5,-396C1052.5,-396 842.5,-396 842.5,-396 836.5,-396 830.5,-390 830.5,-384 830.5,-384 830.5,-372 830.5,-372 830.5,-366 836.5,-360 842.5,-360 842.5,-360 1052.5,-360 1052.5,-360 1058.5,-360 1064.5,-366 1064.5,-372 1064.5,-372 1064.5,-384 1064.5,-384 1064.5,-390 1058.5,-396 1052.5,-396"/>
<text text-anchor="middle" x="947.5" y="-381" font-family="sans" font-size="10.00">diamond_db</text>
<text text-anchor="middle" x="947.5" y="-370" font-family="sans" font-size="10.00">sample: staph_ribosomal_proteins/atccL6.aa</text>
</g>
<!-- 7&#45;&gt;17 -->
<g id="edge41" class="edge">
<title>7&#45;&gt;17</title>
<path fill="none" stroke="grey" stroke-width="2" d="M918.29,-647.97C937.36,-639.34 958.61,-627.39 974.5,-612 1024.42,-563.64 1025.67,-536.81 1035.5,-468 1037.76,-452.16 1043.37,-445.93 1035.5,-432 1028.16,-419.01 1016.21,-408.84 1003.46,-401.05"/>
<polygon fill="grey" stroke="grey" stroke-width="2" points="1004.97,-397.89 994.54,-396.03 1001.54,-403.99 1004.97,-397.89"/>
</g>
<!-- 18 -->
<g id="node19" class="node">
<title>18</title>
<path fill="none" stroke="#5692d8" stroke-width="2" d="M1098,-324C1098,-324 881,-324 881,-324 875,-324 869,-318 869,-312 869,-312 869,-300 869,-300 869,-294 875,-288 881,-288 881,-288 1098,-288 1098,-288 1104,-288 1110,-294 1110,-300 1110,-300 1110,-312 1110,-312 1110,-318 1104,-324 1098,-324"/>
<text text-anchor="middle" x="989.5" y="-309" font-family="sans" font-size="10.00">diamond_db</text>
<text text-anchor="middle" x="989.5" y="-298" font-family="sans" font-size="10.00">sample: staph_ribosomal_proteins/atccS10.aa</text>
</g>
<!-- 7&#45;&gt;18 -->
<g id="edge42" class="edge">
<title>7&#45;&gt;18</title>
<path fill="none" stroke="grey" stroke-width="2" d="M939.01,-651.51C1004,-634.12 1092.5,-596.88 1092.5,-523 1092.5,-523 1092.5,-523 1092.5,-449 1092.5,-408.55 1096.64,-393.17 1073.5,-360 1064.76,-347.48 1052.02,-337.27 1039.08,-329.29"/>
<polygon fill="grey" stroke="grey" stroke-width="2" points="1040.55,-326.09 1030.15,-324.11 1037.04,-332.15 1040.55,-326.09"/>
</g>
<!-- 19 -->
<g id="node20" class="node">
<title>19</title>
<path fill="none" stroke="#5692d8" stroke-width="2" d="M1136,-252C1136,-252 919,-252 919,-252 913,-252 907,-246 907,-240 907,-240 907,-228 907,-228 907,-222 913,-216 919,-216 919,-216 1136,-216 1136,-216 1142,-216 1148,-222 1148,-228 1148,-228 1148,-240 1148,-240 1148,-246 1142,-252 1136,-252"/>
<text text-anchor="middle" x="1027.5" y="-237" font-family="sans" font-size="10.00">diamond_db</text>
<text text-anchor="middle" x="1027.5" y="-226" font-family="sans" font-size="10.00">sample: staph_ribosomal_proteins/atccS17.aa</text>
</g>
<!-- 7&#45;&gt;19 -->
<g id="edge43" class="edge">
<title>7&#45;&gt;19</title>
<path fill="none" stroke="grey" stroke-width="2" d="M939.22,-658.28C1018.32,-646.27 1138.5,-613.17 1138.5,-523 1138.5,-523 1138.5,-523 1138.5,-377 1138.5,-336.46 1142.46,-320.71 1118.5,-288 1109.11,-275.18 1095.59,-264.95 1081.85,-257.03"/>
<polygon fill="grey" stroke="grey" stroke-width="2" points="1083.28,-253.83 1072.82,-252.16 1079.96,-259.99 1083.28,-253.83"/>
</g>
<!-- 20 -->
<g id="node21" class="node">
<title>20</title>
<path fill="none" stroke="#5692d8" stroke-width="2" d="M1174,-180C1174,-180 957,-180 957,-180 951,-180 945,-174 945,-168 945,-168 945,-156 945,-156 945,-150 951,-144 957,-144 957,-144 1174,-144 1174,-144 1180,-144 1186,-150 1186,-156 1186,-156 1186,-168 1186,-168 1186,-174 1180,-180 1174,-180"/>
<text text-anchor="middle" x="1065.5" y="-165" font-family="sans" font-size="10.00">diamond_db</text>
<text text-anchor="middle" x="1065.5" y="-154" font-family="sans" font-size="10.00">sample: staph_ribosomal_proteins/atccS19.aa</text>
</g>
<!-- 7&#45;&gt;20 -->
<g id="edge44" class="edge">
<title>7&#45;&gt;20</title>
<path fill="none" stroke="grey" stroke-width="2" d="M939.19,-662.44C1029.04,-655.01 1176.5,-626.97 1176.5,-523 1176.5,-523 1176.5,-523 1176.5,-305 1176.5,-264.46 1180.46,-248.71 1156.5,-216 1147.11,-203.18 1133.59,-192.95 1119.85,-185.03"/>
<polygon fill="grey" stroke="grey" stroke-width="2" points="1121.28,-181.83 1110.82,-180.16 1117.96,-187.99 1121.28,-181.83"/>
</g>
<!-- 21 -->
<g id="node22" class="node">
<title>21</title>
<path fill="none" stroke="#5692d8" stroke-width="2" d="M1220,-108C1220,-108 1009,-108 1009,-108 1003,-108 997,-102 997,-96 997,-96 997,-84 997,-84 997,-78 1003,-72 1009,-72 1009,-72 1220,-72 1220,-72 1226,-72 1232,-78 1232,-84 1232,-84 1232,-96 1232,-96 1232,-102 1226,-108 1220,-108"/>
<text text-anchor="middle" x="1114.5" y="-93" font-family="sans" font-size="10.00">diamond_db</text>
<text text-anchor="middle" x="1114.5" y="-82" font-family="sans" font-size="10.00">sample: staph_ribosomal_proteins/atccS3.aa</text>
</g>
<!-- 7&#45;&gt;21 -->
<g id="edge45" class="edge">
<title>7&#45;&gt;21</title>
<path fill="none" stroke="grey" stroke-width="2" d="M939.14,-658.7C1012.13,-650.83 1122.62,-635.47 1157.5,-612 1196.47,-585.78 1214.5,-569.97 1214.5,-523 1214.5,-523 1214.5,-523 1214.5,-233 1214.5,-192.46 1217.5,-177.38 1194.5,-144 1185.97,-131.63 1173.53,-121.39 1160.98,-113.33"/>
<polygon fill="grey" stroke="grey" stroke-width="2" points="1162.69,-110.27 1152.32,-108.09 1159.07,-116.26 1162.69,-110.27"/>
</g>
<!-- 22 -->
<g id="node23" class="node">
<title>22</title>
<path fill="none" stroke="#5692d8" stroke-width="2" d="M1466,-612C1466,-612 1255,-612 1255,-612 1249,-612 1243,-606 1243,-600 1243,-600 1243,-588 1243,-588 1243,-582 1249,-576 1255,-576 1255,-576 1466,-576 1466,-576 1472,-576 1478,-582 1478,-588 1478,-588 1478,-600 1478,-600 1478,-606 1472,-612 1466,-612"/>
<text text-anchor="middle" x="1360.5" y="-597" font-family="sans" font-size="10.00">diamond_db</text>
<text text-anchor="middle" x="1360.5" y="-586" font-family="sans" font-size="10.00">sample: staph_ribosomal_proteins/atccS8.aa</text>
</g>
<!-- 7&#45;&gt;22 -->
<g id="edge46" class="edge">
<title>7&#45;&gt;22</title>
<path fill="none" stroke="grey" stroke-width="2" d="M939.24,-655.3C1014.76,-644.49 1138.61,-626.76 1232.53,-613.32"/>
<polygon fill="grey" stroke="grey" stroke-width="2" points="1233.27,-616.75 1242.67,-611.87 1232.27,-609.82 1233.27,-616.75"/>
</g>
<!-- 25 -->
<g id="node26" class="node">
<title>25</title>
<path fill="none" stroke="#d89556" stroke-width="2" d="M1564.5,-612C1564.5,-612 1508.5,-612 1508.5,-612 1502.5,-612 1496.5,-606 1496.5,-600 1496.5,-600 1496.5,-588 1496.5,-588 1496.5,-582 1502.5,-576 1508.5,-576 1508.5,-576 1564.5,-576 1564.5,-576 1570.5,-576 1576.5,-582 1576.5,-588 1576.5,-588 1576.5,-600 1576.5,-600 1576.5,-606 1570.5,-612 1564.5,-612"/>
<text text-anchor="middle" x="1536.5" y="-591.5" font-family="sans" font-size="10.00">diamond_run</text>
</g>
<!-- 7&#45;&gt;25 -->
<g id="edge49" class="edge">
<title>7&#45;&gt;25</title>
<path fill="none" stroke="grey" stroke-width="2" d="M939.16,-664.49C1053.26,-662.44 1290.63,-653.1 1486.5,-612 1486.6,-611.98 1486.7,-611.96 1486.8,-611.94"/>
<polygon fill="grey" stroke="grey" stroke-width="2" points="1487.47,-615.38 1496.35,-609.58 1485.8,-608.58 1487.47,-615.38"/>
</g>
<!-- 30 -->
<g id="node31" class="node">
<title>30</title>
<path fill="none" stroke="#d8d356" stroke-width="2" d="M1570.5,-396C1570.5,-396 1444.5,-396 1444.5,-396 1438.5,-396 1432.5,-390 1432.5,-384 1432.5,-384 1432.5,-372 1432.5,-372 1432.5,-366 1438.5,-360 1444.5,-360 1444.5,-360 1570.5,-360 1570.5,-360 1576.5,-360 1582.5,-366 1582.5,-372 1582.5,-372 1582.5,-384 1582.5,-384 1582.5,-390 1576.5,-396 1570.5,-396"/>
<text text-anchor="middle" x="1507.5" y="-375.5" font-family="sans" font-size="10.00">concatenate_with_previous</text>
</g>
<!-- 7&#45;&gt;30 -->
<g id="edge54" class="edge">
<title>7&#45;&gt;30</title>
<path fill="none" stroke="grey" stroke-width="2" d="M939.13,-665.09C1108.8,-664.61 1542.07,-658.77 1585.5,-612 1613.12,-582.25 1622.82,-566.9 1554.5,-432 1549.31,-421.75 1541.65,-411.93 1534.01,-403.58"/>
<polygon fill="grey" stroke="grey" stroke-width="2" points="1536.53,-401.15 1527.08,-396.36 1531.48,-406 1536.53,-401.15"/>
</g>
<!-- 8&#45;&gt;0 -->
<g id="edge22" class="edge">
<title>8&#45;&gt;0</title>
<path fill="none" stroke="grey" stroke-width="2" d="M236,-719.99C223.73,-693.82 202.5,-641.79 202.5,-595 202.5,-595 202.5,-595 202.5,-161 202.5,-116.06 214.84,-99.35 250.5,-72 305.63,-29.72 389.19,-20.42 437.14,-18.81"/>
<polygon fill="grey" stroke="grey" stroke-width="2" points="437.46,-22.3 447.38,-18.56 437.3,-15.3 437.46,-22.3"/>
</g>
<!-- 8&#45;&gt;7 -->
<g id="edge31" class="edge">
<title>8&#45;&gt;7</title>
<path fill="none" stroke="grey" stroke-width="2" d="M296.08,-731.24C405.88,-718.98 663.34,-690.24 793.39,-675.72"/>
<polygon fill="grey" stroke="grey" stroke-width="2" points="794.12,-679.16 803.67,-674.57 793.34,-672.2 794.12,-679.16"/>
</g>
<!-- 9&#45;&gt;0 -->
<g id="edge7" class="edge">
<title>9&#45;&gt;0</title>
<path fill="none" stroke="grey" stroke-width="2" d="M381.09,-431.9C364.42,-423.48 346.87,-411.7 335.5,-396 311.77,-363.24 316.5,-347.45 316.5,-307 316.5,-307 316.5,-307 316.5,-161 316.5,-115.19 335.07,-103.32 368.5,-72 388.25,-53.5 415.69,-40.02 437.7,-31.28"/>
<polygon fill="grey" stroke="grey" stroke-width="2" points="438.97,-34.54 447.07,-27.71 436.48,-28 438.97,-34.54"/>
</g>
<!-- 10&#45;&gt;0 -->
<g id="edge8" class="edge">
<title>10&#45;&gt;0</title>
<path fill="none" stroke="grey" stroke-width="2" d="M421.74,-359.88C405.38,-351.36 387.93,-339.5 376.5,-324 352.31,-291.21 354.5,-275.75 354.5,-235 354.5,-235 354.5,-235 354.5,-161 354.5,-108.33 403.25,-65.12 438.61,-40.7"/>
<polygon fill="grey" stroke="grey" stroke-width="2" points="440.91,-43.37 447.27,-34.9 437.01,-37.55 440.91,-43.37"/>
</g>
<!-- 11&#45;&gt;0 -->
<g id="edge9" class="edge">
<title>11&#45;&gt;0</title>
<path fill="none" stroke="grey" stroke-width="2" d="M452.94,-287.85C436.81,-279.64 420.7,-268.01 411.5,-252 391.2,-216.69 392.51,-180.19 437.5,-72 441.53,-62.31 447.55,-52.63 453.57,-44.24"/>
<polygon fill="grey" stroke="grey" stroke-width="2" points="456.54,-46.11 459.77,-36.02 450.95,-41.9 456.54,-46.11"/>
</g>
<!-- 12&#45;&gt;0 -->
<g id="edge10" class="edge">
<title>12&#45;&gt;0</title>
<path fill="none" stroke="grey" stroke-width="2" d="M490.94,-215.85C474.81,-207.64 458.7,-196.01 449.5,-180 425.12,-137.59 445.09,-79.01 460.61,-45.46"/>
<polygon fill="grey" stroke="grey" stroke-width="2" points="463.84,-46.82 465.03,-36.29 457.53,-43.78 463.84,-46.82"/>
</g>
<!-- 13&#45;&gt;0 -->
<g id="edge11" class="edge">
<title>13&#45;&gt;0</title>
<path fill="none" stroke="grey" stroke-width="2" d="M537.38,-143.99C521.41,-135.43 504.39,-123.52 493.5,-108 480.85,-89.97 476.34,-65.18 474.86,-46.34"/>
<polygon fill="grey" stroke="grey" stroke-width="2" points="478.35,-46.1 474.31,-36.3 471.36,-46.48 478.35,-46.1"/>
</g>
<!-- 14&#45;&gt;0 -->
<g id="edge12" class="edge">
<title>14&#45;&gt;0</title>
<path fill="none" stroke="grey" stroke-width="2" d="M584.03,-71.88C561.87,-61.18 533.41,-47.44 511.06,-36.65"/>
<polygon fill="grey" stroke="grey" stroke-width="2" points="512.41,-33.42 501.88,-32.22 509.37,-39.72 512.41,-33.42"/>
</g>
<!-- 15&#45;&gt;0 -->
<g id="edge13" class="edge">
<title>15&#45;&gt;0</title>
<path fill="none" stroke="grey" stroke-width="2" d="M828.03,-503.83C811.77,-495.34 794.58,-483.54 783.5,-468 760.01,-435.07 764.5,-419.45 764.5,-379 764.5,-379 764.5,-379 764.5,-161 764.5,-120.55 774.35,-100.35 745.5,-72 712.89,-39.94 578.36,-26.23 511.94,-21.32"/>
<polygon fill="grey" stroke="grey" stroke-width="2" points="512.12,-17.83 501.89,-20.61 511.62,-24.81 512.12,-17.83"/>
</g>
<!-- 16&#45;&gt;0 -->
<g id="edge14" class="edge">
<title>16&#45;&gt;0</title>
<path fill="none" stroke="grey" stroke-width="2" d="M866.03,-431.83C849.77,-423.34 832.58,-411.54 821.5,-396 798.01,-363.07 802.5,-347.45 802.5,-307 802.5,-307 802.5,-307 802.5,-161 802.5,-120.03 808.75,-99.62 778.5,-72 739.94,-36.79 583.87,-24.47 511.58,-20.6"/>
<polygon fill="grey" stroke="grey" stroke-width="2" points="511.71,-17.1 501.55,-20.09 511.36,-24.09 511.71,-17.1"/>
</g>
<!-- 17&#45;&gt;0 -->
<g id="edge15" class="edge">
<title>17&#45;&gt;0</title>
<path fill="none" stroke="grey" stroke-width="2" d="M904.03,-359.83C887.77,-351.34 870.58,-339.54 859.5,-324 836.01,-291.07 840.5,-275.45 840.5,-235 840.5,-235 840.5,-235 840.5,-161 840.5,-120.03 847.01,-99.34 816.5,-72 772.07,-32.19 590.77,-22.25 511.69,-19.79"/>
<polygon fill="grey" stroke="grey" stroke-width="2" points="511.77,-16.3 501.68,-19.51 511.57,-23.29 511.77,-16.3"/>
</g>
<!-- 18&#45;&gt;0 -->
<g id="edge16" class="edge">
<title>18&#45;&gt;0</title>
<path fill="none" stroke="grey" stroke-width="2" d="M943.8,-287.86C926.97,-279.43 909.19,-267.66 897.5,-252 848.29,-186.09 915.38,-127.31 854.5,-72 804.74,-26.8 597.24,-19.93 511.66,-19.04"/>
<polygon fill="grey" stroke="grey" stroke-width="2" points="511.63,-15.54 501.6,-18.96 511.58,-22.54 511.63,-15.54"/>
</g>
<!-- 19&#45;&gt;0 -->
<g id="edge17" class="edge">
<title>19&#45;&gt;0</title>
<path fill="none" stroke="grey" stroke-width="2" d="M984.81,-215.91C967.62,-207.27 948.77,-195.33 935.5,-180 901.69,-140.94 933.35,-103.64 892.5,-72 833.46,-26.27 602.73,-19.77 511.71,-19.01"/>
<polygon fill="grey" stroke="grey" stroke-width="2" points="511.6,-15.51 501.57,-18.95 511.55,-22.51 511.6,-15.51"/>
</g>
<!-- 20&#45;&gt;0 -->
<g id="edge18" class="edge">
<title>20&#45;&gt;0</title>
<path fill="none" stroke="grey" stroke-width="2" d="M1040.3,-143.95C1002.93,-118.73 936.53,-74.2 930.5,-72 853.61,-44 606.7,-26.82 511.98,-21.12"/>
<polygon fill="grey" stroke="grey" stroke-width="2" points="511.91,-17.61 501.72,-20.51 511.5,-24.59 511.91,-17.61"/>
</g>
<!-- 21&#45;&gt;0 -->
<g id="edge19" class="edge">
<title>21&#45;&gt;0</title>
<path fill="none" stroke="grey" stroke-width="2" d="M996.8,-74.68C988.92,-73.76 981.09,-72.86 973.5,-72 801.01,-52.44 594.71,-31.22 511.75,-22.77"/>
<polygon fill="grey" stroke="grey" stroke-width="2" points="511.86,-19.27 501.56,-21.74 511.15,-26.23 511.86,-19.27"/>
</g>
<!-- 22&#45;&gt;0 -->
<g id="edge20" class="edge">
<title>22&#45;&gt;0</title>
<path fill="none" stroke="grey" stroke-width="2" d="M1338.94,-575.78C1310.91,-551.28 1265.5,-503.5 1265.5,-451 1265.5,-451 1265.5,-451 1265.5,-161 1265.5,-119.91 1272.37,-97.93 1240.5,-72 1183.57,-25.68 657.66,-19.83 511.83,-19.1"/>
<polygon fill="grey" stroke="grey" stroke-width="2" points="511.63,-15.6 501.61,-19.06 511.6,-22.6 511.63,-15.6"/>
</g>
<!-- 23 -->
<g id="node24" class="node">
<title>23</title>
<path fill="none" stroke="#5673d8" stroke-width="2" d="M1534,-468C1534,-468 1481,-468 1481,-468 1475,-468 1469,-462 1469,-456 1469,-456 1469,-444 1469,-444 1469,-438 1475,-432 1481,-432 1481,-432 1534,-432 1534,-432 1540,-432 1546,-438 1546,-444 1546,-444 1546,-456 1546,-456 1546,-462 1540,-468 1534,-468"/>
<text text-anchor="middle" x="1507.5" y="-447.5" font-family="sans" font-size="10.00">concatenate</text>
</g>
<!-- 23&#45;&gt;0 -->
<g id="edge23" class="edge">
<title>23&#45;&gt;0</title>
<path fill="none" stroke="grey" stroke-width="2" d="M1468.9,-432.6C1452.7,-423.91 1434.99,-411.74 1423.5,-396 1399.42,-363 1400.5,-347.86 1400.5,-307 1400.5,-307 1400.5,-307 1400.5,-161 1400.5,-119.11 1402.91,-97.26 1369.5,-72 1300.32,-19.69 673.21,-18.29 512.09,-18.81"/>
<polygon fill="grey" stroke="grey" stroke-width="2" points="511.73,-15.31 501.74,-18.84 511.75,-22.31 511.73,-15.31"/>
</g>
<!-- 23&#45;&gt;30 -->
<g id="edge55" class="edge">
<title>23&#45;&gt;30</title>
<path fill="none" stroke="grey" stroke-width="2" d="M1507.5,-431.7C1507.5,-423.98 1507.5,-414.71 1507.5,-406.11"/>
<polygon fill="grey" stroke="grey" stroke-width="2" points="1511,-406.1 1507.5,-396.1 1504,-406.1 1511,-406.1"/>
</g>
<!-- 24 -->
<g id="node25" class="node">
<title>24</title>
<path fill="none" stroke="#d8b456" stroke-width="2" d="M1534.5,-540C1534.5,-540 1486.5,-540 1486.5,-540 1480.5,-540 1474.5,-534 1474.5,-528 1474.5,-528 1474.5,-516 1474.5,-516 1474.5,-510 1480.5,-504 1486.5,-504 1486.5,-504 1534.5,-504 1534.5,-504 1540.5,-504 1546.5,-510 1546.5,-516 1546.5,-516 1546.5,-528 1546.5,-528 1546.5,-534 1540.5,-540 1534.5,-540"/>
<text text-anchor="middle" x="1510.5" y="-519.5" font-family="sans" font-size="10.00">collect_hits</text>
</g>
<!-- 24&#45;&gt;23 -->
<g id="edge47" class="edge">
<title>24&#45;&gt;23</title>
<path fill="none" stroke="grey" stroke-width="2" d="M1509.76,-503.7C1509.43,-495.98 1509.03,-486.71 1508.66,-478.11"/>
<polygon fill="grey" stroke="grey" stroke-width="2" points="1512.16,-477.95 1508.23,-468.1 1505.16,-478.25 1512.16,-477.95"/>
</g>
<!-- 25&#45;&gt;0 -->
<g id="edge24" class="edge">
<title>25&#45;&gt;0</title>
<path fill="none" stroke="grey" stroke-width="2" d="M1504.56,-575.98C1452.6,-547.21 1355.5,-488.44 1355.5,-451 1355.5,-451 1355.5,-451 1355.5,-161 1355.5,-105.06 1317.44,-95.12 1266.5,-72 1197.33,-40.6 659.83,-23.97 512.01,-19.96"/>
<polygon fill="grey" stroke="grey" stroke-width="2" points="511.75,-16.46 501.66,-19.69 511.56,-23.45 511.75,-16.46"/>
</g>
<!-- 25&#45;&gt;24 -->
<g id="edge48" class="edge">
<title>25&#45;&gt;24</title>
<path fill="none" stroke="grey" stroke-width="2" d="M1530.07,-575.7C1527.14,-567.81 1523.61,-558.3 1520.36,-549.55"/>
<polygon fill="grey" stroke="grey" stroke-width="2" points="1523.62,-548.26 1516.85,-540.1 1517.05,-550.7 1523.62,-548.26"/>
</g>
<!-- 26 -->
<g id="node27" class="node">
<title>26</title>
<path fill="none" stroke="#d87556" stroke-width="2" d="M1481.5,-108C1481.5,-108 1451.5,-108 1451.5,-108 1445.5,-108 1439.5,-102 1439.5,-96 1439.5,-96 1439.5,-84 1439.5,-84 1439.5,-78 1445.5,-72 1451.5,-72 1451.5,-72 1481.5,-72 1481.5,-72 1487.5,-72 1493.5,-78 1493.5,-84 1493.5,-84 1493.5,-96 1493.5,-96 1493.5,-102 1487.5,-108 1481.5,-108"/>
<text text-anchor="middle" x="1466.5" y="-87.5" font-family="sans" font-size="10.00">report</text>
</g>
<!-- 26&#45;&gt;0 -->
<g id="edge25" class="edge">
<title>26&#45;&gt;0</title>
<path fill="none" stroke="grey" stroke-width="2" d="M1439.32,-78.64C1431.43,-76.04 1422.71,-73.55 1414.5,-72 1236.85,-38.54 664.44,-23.33 512.06,-19.82"/>
<polygon fill="grey" stroke="grey" stroke-width="2" points="511.9,-16.31 501.82,-19.58 511.74,-23.31 511.9,-16.31"/>
</g>
<!-- 27 -->
<g id="node28" class="node">
<title>27</title>
<path fill="none" stroke="#56d8a2" stroke-width="2" d="M1501.5,-180C1501.5,-180 1453.5,-180 1453.5,-180 1447.5,-180 1441.5,-174 1441.5,-168 1441.5,-168 1441.5,-156 1441.5,-156 1441.5,-150 1447.5,-144 1453.5,-144 1453.5,-144 1501.5,-144 1501.5,-144 1507.5,-144 1513.5,-150 1513.5,-156 1513.5,-156 1513.5,-168 1513.5,-168 1513.5,-174 1507.5,-180 1501.5,-180"/>
<text text-anchor="middle" x="1477.5" y="-159.5" font-family="sans" font-size="10.00">create_tree</text>
</g>
<!-- 27&#45;&gt;26 -->
<g id="edge50" class="edge">
<title>27&#45;&gt;26</title>
<path fill="none" stroke="grey" stroke-width="2" d="M1474.78,-143.7C1473.57,-135.98 1472.11,-126.71 1470.76,-118.11"/>
<polygon fill="grey" stroke="grey" stroke-width="2" points="1474.2,-117.44 1469.19,-108.1 1467.28,-118.53 1474.2,-117.44"/>
</g>
<!-- 28 -->
<g id="node29" class="node">
<title>28</title>
<path fill="none" stroke="#56b1d8" stroke-width="2" d="M1499.5,-252C1499.5,-252 1469.5,-252 1469.5,-252 1463.5,-252 1457.5,-246 1457.5,-240 1457.5,-240 1457.5,-228 1457.5,-228 1457.5,-222 1463.5,-216 1469.5,-216 1469.5,-216 1499.5,-216 1499.5,-216 1505.5,-216 1511.5,-222 1511.5,-228 1511.5,-228 1511.5,-240 1511.5,-240 1511.5,-246 1505.5,-252 1499.5,-252"/>
<text text-anchor="middle" x="1484.5" y="-231.5" font-family="sans" font-size="10.00">align</text>
</g>
<!-- 28&#45;&gt;27 -->
<g id="edge51" class="edge">
<title>28&#45;&gt;27</title>
<path fill="none" stroke="grey" stroke-width="2" d="M1482.77,-215.7C1482,-207.98 1481.07,-198.71 1480.21,-190.11"/>
<polygon fill="grey" stroke="grey" stroke-width="2" points="1483.69,-189.71 1479.21,-180.1 1476.72,-190.4 1483.69,-189.71"/>
</g>
<!-- 29 -->
<g id="node30" class="node">
<title>29</title>
<path fill="none" stroke="#bed856" stroke-width="2" d="M1516.5,-324C1516.5,-324 1466.5,-324 1466.5,-324 1460.5,-324 1454.5,-318 1454.5,-312 1454.5,-312 1454.5,-300 1454.5,-300 1454.5,-294 1460.5,-288 1466.5,-288 1466.5,-288 1516.5,-288 1516.5,-288 1522.5,-288 1528.5,-294 1528.5,-300 1528.5,-300 1528.5,-312 1528.5,-312 1528.5,-318 1522.5,-324 1516.5,-324"/>
<text text-anchor="middle" x="1491.5" y="-303.5" font-family="sans" font-size="10.00">deduplicate</text>
</g>
<!-- 29&#45;&gt;28 -->
<g id="edge52" class="edge">
<title>29&#45;&gt;28</title>
<path fill="none" stroke="grey" stroke-width="2" d="M1489.77,-287.7C1489,-279.98 1488.07,-270.71 1487.21,-262.11"/>
<polygon fill="grey" stroke="grey" stroke-width="2" points="1490.69,-261.71 1486.21,-252.1 1483.72,-262.4 1490.69,-261.71"/>
</g>
<!-- 30&#45;&gt;29 -->
<g id="edge53" class="edge">
<title>30&#45;&gt;29</title>
<path fill="none" stroke="grey" stroke-width="2" d="M1503.54,-359.7C1501.78,-351.98 1499.66,-342.71 1497.7,-334.11"/>
<polygon fill="grey" stroke="grey" stroke-width="2" points="1501.05,-333.07 1495.41,-324.1 1494.23,-334.63 1501.05,-333.07"/>
</g>
</g>
</svg>
